<svg xmlns="http://www.w3.org/2000/svg" xmlns:xlink="http://www.w3.org/1999/xlink" width="870.286" height="771.448" viewBox="0 0 870.286 771.448">
  <defs>
    <clipPath id="clip-path">
      <path id="Path_330" data-name="Path 330" d="M72.9,529.533c-2.03.126-4.082.073-6.142.019-7.207-.186-14.53-.373-21.45,7.106-2.278,2.457-3.789,13.116-5.649,15.68,4.074,5.19,5.4,20.156,10.025,25.056,10.622,11.272,34.146,17.133,46.459,25.541-6.78-14.306-16.536-36.365-17.736-55.264-.36-5.575-3.737-11.959-3.6-18.19-.64,0-1.274.016-1.9.052" fill="none"/>
    </clipPath>
    <linearGradient id="linear-gradient" x1="-0.292" y1="3.296" x2="-0.28" y2="3.296" gradientUnits="objectBoundingBox">
      <stop offset="0" stop-color="#541f31"/>
      <stop offset="1" stop-color="#fa5070"/>
    </linearGradient>
    <clipPath id="clip-path-2">
      <path id="Path_331" data-name="Path 331" d="M52.548,434.25c5.512,15.787,19.259,28.257,27.116,42.488.793-6.983,5.3-11.115,5.445-14.561.422-10.181,1.917-23.45-.217-31.149-2.537-9.213-9.26-18.657-15.919-25.017-4.228-4.036-12.989-1.993-17.741-3.684,2.093,9.613-2.177,21.947,1.316,31.923" fill="none"/>
    </clipPath>
    <linearGradient id="linear-gradient-2" x1="-0.395" y1="8.691" x2="-0.382" y2="8.691" xlink:href="#linear-gradient"/>
    <clipPath id="clip-path-3">
      <path id="Path_332" data-name="Path 332" d="M542.935,79.793a262.69,262.69,0,0,0-48.912,56.495,350.86,350.86,0,0,0-33.32,66.589q-5.359,14.074-10.121,29.542a189.254,189.254,0,0,1,28.353-33.057q20.43-19.158,51.29-38.447c.951-.593,1.934-1.21,2.959-1.85,15.295-9.555,20.241-24.989,22.984-34.426,5.83-20,3.1-35.7-4.117-52.324q-4.605,3.6-9.116,7.478" fill="none"/>
    </clipPath>
    <linearGradient id="linear-gradient-3" x1="-2.149" y1="4.236" x2="-2.144" y2="4.236" xlink:href="#linear-gradient"/>
    <clipPath id="clip-path-4">
      <path id="Path_333" data-name="Path 333" d="M27.661,403.253A38.582,38.582,0,0,0,16.273,410.7a45.083,45.083,0,0,0-8.35,10.755,56.223,56.223,0,0,0-5.259,12.63Q-4.47,458.954,7.5,493.412a202.484,202.484,0,0,0,32.159,58.926,80.558,80.558,0,0,1,6.209-7.531Q59.209,530.38,72.9,529.533c.629-.036,1.263-.052,1.9-.052q.109-5.707.5-11.785.792-12.208,3.012-29.437.8-6.381,1.347-11.521a292.844,292.844,0,0,1-20.055-45.026,249.622,249.622,0,0,1-8.377-29.385,31.507,31.507,0,0,0-10.305-1.8c-.16,0-.319,0-.479,0a32.246,32.246,0,0,0-12.787,2.727" fill="none"/>
    </clipPath>
    <linearGradient id="linear-gradient-4" x1="0.27" y1="2.342" x2="0.276" y2="2.342" gradientUnits="objectBoundingBox">
      <stop offset="0" stop-color="#fa5070"/>
      <stop offset="1" stop-color="#ffcc80"/>
    </linearGradient>
    <clipPath id="clip-path-5">
      <path id="Path_334" data-name="Path 334" d="M625.115,36.061a136.954,136.954,0,0,0-18.577,5.548,205.092,205.092,0,0,0-54.487,30.706q.421,27.075-8.323,57.076a287.4,287.4,0,0,1-10.544,29.674q18-11.11,52.029-30.705,32.638-19.475,52.558-35.937A99.719,99.719,0,0,0,654.5,75.538q7.745-10.464,8.773-21.113a23.591,23.591,0,0,0-.687-8.984,14.645,14.645,0,0,0-4.6-7.4q-4.518-3.779-13.661-3.884-.909-.024-1.828-.024a83.993,83.993,0,0,0-17.382,1.927" fill="none"/>
    </clipPath>
    <linearGradient id="linear-gradient-5" x1="-2.832" y1="4.28" x2="-2.827" y2="4.28" xlink:href="#linear-gradient-4"/>
    <clipPath id="clip-path-6">
      <rect id="Rectangle_365" data-name="Rectangle 365" width="870.286" height="771.448" fill="none"/>
    </clipPath>
    <clipPath id="clip-path-7">
      <path id="Path_337" data-name="Path 337" d="M434.859,390.674a176.185,176.185,0,0,0-21.482,24.654,290.79,290.79,0,0,0-43.31,87.306,317.622,317.622,0,0,0-8.641,35.408q10.307,23.276,23.73,48.832a976.912,976.912,0,0,0,71.028,115.818q-.538-2.322-1.057-4.677a275.526,275.526,0,0,1-6.554-55.412,207.049,207.049,0,0,1-11.1-19.9,201.9,201.9,0,0,1-10.253-25.844q-4.963-15.052-4.439-22.962.555-7.88,1.823-10.464a16.632,16.632,0,0,1,3.039-4.307,7.574,7.574,0,0,1,5.232-2.167,15.146,15.146,0,0,1,6,.925,31.587,31.587,0,0,1,12.129,8.033,60.832,60.832,0,0,1,5.813,7.055q3.377-13.485,8.324-28.432,5.334-16.07,15.934-43.389,3.464-8.934,6.288-16.3a17.844,17.844,0,0,1-2.193.027q-12.366-.659-23.7-16.383-20.293-28.168-22.593-67.778-.389-6.65-.291-13.371-1.863,1.6-3.726,3.329" fill="none"/>
    </clipPath>
    <linearGradient id="linear-gradient-6" x1="-1.305" y1="1.167" x2="-1.301" y2="1.167" gradientUnits="objectBoundingBox">
      <stop offset="0" stop-color="#cf9835"/>
      <stop offset="1" stop-color="#f9c13d"/>
    </linearGradient>
    <clipPath id="clip-path-8">
      <path id="Path_338" data-name="Path 338" d="M455.127,698.015q.514,2.355,1.057,4.677c.011.016.011.021,0,.027q22.553,35.054,30.917,48.911,8.394,13.888,10.7,16.726h31.18q-15.973-39.825-45.661-79.219Q467.23,668.685,459.461,658.3q-6.105-8.2-10.888-15.7a275.526,275.526,0,0,0,6.554,55.412" fill="none"/>
    </clipPath>
    <linearGradient id="linear-gradient-7" x1="-3.342" y1="0.944" x2="-3.334" y2="0.944" gradientUnits="objectBoundingBox">
      <stop offset="0" stop-color="#dfe0e1"/>
      <stop offset="1" stop-color="#969a9d"/>
    </linearGradient>
    <clipPath id="clip-path-10">
      <path id="Path_340" data-name="Path 340" d="M75.146,547.185q1.8,28.348,11.97,49.81a210.041,210.041,0,0,1-34.4-29.516q-6.936-7.356-13.053-15.141a67.545,67.545,0,0,0-5.761,9.513,50.222,50.222,0,0,0-5.47,19.818,55.242,55.242,0,0,0,3.937,22.487,120.265,120.265,0,0,0,10.676,20.716A165.263,165.263,0,0,0,60.8,648.76a93.331,93.331,0,0,0,22.8,18.655q15.038,8.539,40.878,12.816,7.189,1.189,21.641,3.251,12.946,1.925,21.431,4.016a151.734,151.734,0,0,1,17.651,5.5,158.517,158.517,0,0,1,26.636,13.133,164.456,164.456,0,0,1,36.915,30.917,173.073,173.073,0,0,1,22.09,31.312H307.6q-.594-1.736-1.163-3.329-7-19.524-14.136-34.537-17.812-37.336-42.7-58.979a198.5,198.5,0,0,0-29.225-20.452q-6.207-3.671-15.7-8.852-7.483-4.059-12.314-6.712c-1.3-.718-2.473-1.364-3.488-1.929a284.177,284.177,0,0,1-30.15-18.761,135.743,135.743,0,0,1-15.088-12.842A104.653,104.653,0,0,1,133.6,590.521q-3.646-4.86-7.848-11.812-.08-.159-7.161-12.287-8.936-15.323-16.225-23.015a49.519,49.519,0,0,0-13.45-10.227,31.7,31.7,0,0,0-14.11-3.7q-.2,9.346.343,17.7" fill="none"/>
    </clipPath>
    <linearGradient id="linear-gradient-8" x1="0.022" y1="0.871" x2="0.025" y2="0.871" gradientUnits="objectBoundingBox">
      <stop offset="0" stop-color="#dfe0e1"/>
      <stop offset="1" stop-color="#2d3f58"/>
    </linearGradient>
    <clipPath id="clip-path-11">
      <path id="Path_341" data-name="Path 341" d="M110.29,256.518A71.27,71.27,0,0,0,80.8,273.139a94.927,94.927,0,0,0-20.664,27.428q-14.4,28.248-13.476,64.687a198.232,198.232,0,0,0,4.571,37.073,38.1,38.1,0,0,1,13.476,8.588A49.992,49.992,0,0,1,78.5,434.275q3.2,11.545,2.563,26.82-.213,5.169-1.4,15.643a282.276,282.276,0,0,0,18.26,28.776,253.8,253.8,0,0,0,45.819,48.832q6.238,5.049,12.79,9.672,11.47,8.141,27.243,17.122,4.035,2.3,13.9,7.664,6.1,3.328,14.428,7.821,17.653,9.535,28.063,15.854a255.2,255.2,0,0,1,26.424,18.259q42.332,33.8,68.227,92.671a381.6,381.6,0,0,1,16.3,44.947h48.964A392.645,392.645,0,0,1,370.7,695.874a368.754,368.754,0,0,1-10.332-45.819q-3.687-3.473-7.664-7.055-9.932-8.984-27.533-23.676-20.351-16.989-27.773-23.439-15.354-13.4-26.45-24.786a322.876,322.876,0,0,1-35.938-43.969,332.19,332.19,0,0,1-34.086-64.819q-2.68-6.8-5.047-13.635A320.72,320.72,0,0,1,177.989,335q.318-9.775.423-14.691.135-8.537-.317-14.666-1.214-16.488-7.637-27.4-8.5-14.427-26.159-20.479a58.476,58.476,0,0,0-19.031-3.254,57.548,57.548,0,0,0-14.978,2.012" fill="none"/>
    </clipPath>
    <linearGradient id="linear-gradient-9" x1="0.018" y1="0.947" x2="0.021" y2="0.947" gradientUnits="objectBoundingBox">
      <stop offset="0" stop-color="#dfe0e1"/>
      <stop offset="1" stop-color="#fff"/>
    </linearGradient>
    <clipPath id="clip-path-12">
      <path id="Path_342" data-name="Path 342" d="M120.606,359.584c-6.58,3.572-9.761,11.013-11.278,18-7.61,35.144,13.751,68.179,34,94.768,6.146,8.069,12.388,16.06,18.444,24.194,2.056,2.758,5.935,10.586,9.608,11.843.069.021.148.042.175-.037L204.6,492.534c-33.776-29.119-34.869-70.552-49.224-109.977-4.063-11.173-13.253-25.464-25.687-25.462a18.924,18.924,0,0,0-9.087,2.489" fill="none"/>
    </clipPath>
    <linearGradient id="linear-gradient-10" x1="-0.412" y1="2.352" x2="-0.406" y2="2.352" gradientUnits="objectBoundingBox">
      <stop offset="0" stop-color="#cacbcb"/>
      <stop offset="1" stop-color="#2d3f58"/>
    </linearGradient>
    <clipPath id="clip-path-13">
      <path id="Path_343" data-name="Path 343" d="M495.821,13.468Q483.668,18.384,470.506,29.8q-34.983,30.387-63.154,76.312-23.172,37.759-43.865,89.948Q341.712,251,331.911,297.978q-11.678,55.887-7.664,105.459,3.672,44.975,21.114,94.414,6.762,19.159,16.065,40.191a317.622,317.622,0,0,1,8.641-35.408,290.79,290.79,0,0,1,43.31-87.306,176.185,176.185,0,0,1,21.482-24.654q1.863-1.727,3.726-3.329A201.668,201.668,0,0,1,449.1,327.864q9.432-28.619,30.1-66.51,4.938-9.063,18.021-32.026,11.518-20.216,17.81-32.079,10.654-20.025,18.153-38.184c-1.025.64-2.008,1.257-2.959,1.85q-30.861,19.29-51.29,38.447a189.254,189.254,0,0,0-28.353,33.057q4.756-15.467,10.121-29.542a350.86,350.86,0,0,1,33.32-66.589,262.69,262.69,0,0,1,48.912-56.495q4.511-3.882,9.116-7.478-.119-7.533-.951-14.85-1.8-15.75-7.874-27.244-7.293-13.742-19.4-18.26a32.4,32.4,0,0,0-11.4-2.027,44.392,44.392,0,0,0-16.612,3.534" fill="none"/>
    </clipPath>
    <linearGradient id="linear-gradient-11" x1="-0.615" y1="1.366" x2="-0.612" y2="1.366" xlink:href="#linear-gradient-9"/>
    <clipPath id="clip-path-14">
      <path id="Path_344" data-name="Path 344" d="M344.277,704.7a95.637,95.637,0,0,1-18.391-.819q.873,9.219,1.48,22.566.531,11.415.74,22.118.08,3.011-.265,19.9c6.643.581,36.059,2.1,42.929-.106-.264-.406-2.325-5.321-2.711-5.707a8.785,8.785,0,0,0-3.832-1.982c-.438-.122-1.612-.381-3.514-.766a2.293,2.293,0,0,1-1.506-.741,2.05,2.05,0,0,1-.317-1.5l.5-10.888.211-1.162q1.926-4.621,1.982-18.418.056-16.512.4-18.867l.343-2.457q.294-1.959.555-3.937a97.955,97.955,0,0,1-18.6,2.774" fill="none"/>
    </clipPath>
    <linearGradient id="linear-gradient-12" x1="-4.377" y1="1.213" x2="-4.363" y2="1.213" gradientUnits="objectBoundingBox">
      <stop offset="0" stop-color="#1a237e"/>
      <stop offset="1" stop-color="#1976d2"/>
    </linearGradient>
    <clipPath id="clip-path-15">
      <path id="Path_345" data-name="Path 345" d="M152.173,707.343q-7.08,23.836-7.531,32.607l-5.681,25.922c1.2.317,2.156.555,2.88.714a28.663,28.663,0,0,0,5.866.74c2.379,0,27.513,1.02,27.038-2.965-.423-3.53-5.544-5.058-6.955-7.367q-2.142-3.464.554-8.271a200.348,200.348,0,0,1,20.083-31.867q5.652-7.428,10.992-15.749a222.477,222.477,0,0,1-43.6-5.364q-1.643,5.31-3.647,11.6" fill="none"/>
    </clipPath>
    <linearGradient id="linear-gradient-13" x1="-1.299" y1="0.919" x2="-1.288" y2="0.919" xlink:href="#linear-gradient-12"/>
    <clipPath id="clip-path-17">
      <path id="Path_349" data-name="Path 349" d="M187.449,553.633q2.037,1.19,4.889,3.012a42.231,42.231,0,0,0,8.72,4.492q9.909,3.352,26.477,3.621,7.372.1,27.085-.846c.227-.016.486-.043.766-.08q2.085-8.4,4.122-17.572a131.822,131.822,0,0,1-34.035.238,129.5,129.5,0,0,1-35.434-9.46q-1.245,8.245-2.59,16.595" fill="none"/>
    </clipPath>
    <linearGradient id="linear-gradient-14" x1="-4.53" y1="3.377" x2="-4.507" y2="3.377" gradientUnits="objectBoundingBox">
      <stop offset="0" stop-color="#f5fbf9"/>
      <stop offset="1" stop-color="#909090"/>
    </linearGradient>
    <clipPath id="clip-path-18">
      <path id="Path_350" data-name="Path 350" d="M192.576,518.831a48.705,48.705,0,0,0,5.047,1.9,102.33,102.33,0,0,0,16.092,3.356,257.034,257.034,0,0,0,30.6,2.722,142.107,142.107,0,0,0,19.528-.978q1.086-5.389,2.431-12.472-4.971.453-12.208.845-8.268.4-15.934.476a70.684,70.684,0,0,1-8.984-.211,193.631,193.631,0,0,1-20.691-4.994A121.276,121.276,0,0,1,194.4,504.4q-.872,7.156-1.823,14.426" fill="none"/>
    </clipPath>
    <linearGradient id="linear-gradient-15" x1="-5.277" y1="3.824" x2="-5.252" y2="3.824" xlink:href="#linear-gradient-14"/>
    <clipPath id="clip-path-19">
      <path id="Path_351" data-name="Path 351" d="M335.478,550.911a127.56,127.56,0,0,1-37.892,2.748c.2.809.38,1.639.554,2.484q1.609,6.841,3.04,13.053a46.3,46.3,0,0,0,11.863,1.137,139.2,139.2,0,0,0,27.059-3.356,144.469,144.469,0,0,0,25.632-7.69q-.1-9.567-.291-19.025a128.091,128.091,0,0,1-29.965,10.649" fill="none"/>
    </clipPath>
    <linearGradient id="linear-gradient-16" x1="-4.119" y1="5.947" x2="-4.105" y2="5.947" gradientUnits="objectBoundingBox">
      <stop offset="0" stop-color="#f5fbf9"/>
      <stop offset="1" stop-color="#afafaf"/>
    </linearGradient>
    <clipPath id="clip-path-20">
      <path id="Path_352" data-name="Path 352" d="M339.283,511.513a155.282,155.282,0,0,1-28.538,3.936q-1.846.08-13.556-.712-5.493-.4-8.456-.661,1.324,6.159,2.828,12.947a126.056,126.056,0,0,0,20.954-.053q9.909-.814,28.908-4.043,12.819-2.219,19.105-3.857,2.3-.61,4.439-1.242-.213-7.952-.422-15.828-9.831,5.889-25.262,9.513" fill="none"/>
    </clipPath>
    <linearGradient id="linear-gradient-17" x1="-3.63" y1="7.554" x2="-3.617" y2="7.554" xlink:href="#linear-gradient-16"/>
    <clipPath id="clip-path-21">
      <path id="Path_353" data-name="Path 353" d="M190.039,537.038a129.5,129.5,0,0,0,35.434,9.46,131.822,131.822,0,0,0,34.035-.238q2.085-9.354,4.123-19.474c.068-.317.142-.635.211-.952a142.107,142.107,0,0,1-19.528.978,257.034,257.034,0,0,1-30.6-2.722,102.33,102.33,0,0,1-16.092-3.356,48.705,48.705,0,0,1-5.047-1.9q-1.189,9.062-2.537,18.207" fill="none"/>
    </clipPath>
    <linearGradient id="linear-gradient-18" x1="-4.287" y1="3.519" x2="-4.266" y2="3.519" gradientUnits="objectBoundingBox">
      <stop offset="0" stop-color="#ff5722"/>
      <stop offset="1" stop-color="#880e4f"/>
    </linearGradient>
    <clipPath id="clip-path-22">
      <path id="Path_354" data-name="Path 354" d="M360.528,519.07q-6.287,1.64-19.105,3.857-19,3.227-28.908,4.043a126.056,126.056,0,0,1-20.954.053q2.719,12.288,6.025,26.636a130.1,130.1,0,0,0,67.857-13.4q-.215-11.313-.476-22.434-2.139.634-4.439,1.242" fill="none"/>
    </clipPath>
    <linearGradient id="linear-gradient-19" x1="-3.72" y1="5.658" x2="-3.707" y2="5.658" gradientUnits="objectBoundingBox">
      <stop offset="0" stop-color="#ff5722"/>
      <stop offset="1" stop-color="#b71c1c"/>
    </linearGradient>
    <clipPath id="clip-path-23">
      <path id="Path_355" data-name="Path 355" d="M228.156,272.835c-10.343.769-20.657,1.539-30.982,1.124.95,6.429-6.639,21.3-2.474,35.319.354,4.9,8.878,19.626,9.106,24.663a.076.076,0,0,0,.053.027,22.276,22.276,0,0,0,6.262,3.144,55.263,55.263,0,0,0,13.873,1.585q12.787.134,14.084.239,6.864.534,13.979.977c5.1.309,6.114,11,10.95,9.844,8.9-2.118,19.49.7,29.188.885,2.154.043,5.25-2.184,8.359-4.413,3.092-2.215,6.2-4.431,8.394-4.413a110.469,110.469,0,0,1-7.822-23.28q-1.323-5.655-3.831-18.946-2.244-11.811-3.779-17.678-.5-1.981-1.215-4.439-.912.035-1.823.052c-12.551-4.6-24.936-5.933-37.227-5.933-8.4,0-16.758.621-25.1,1.243" fill="none"/>
    </clipPath>
    <linearGradient id="linear-gradient-20" x1="-1.253" y1="3.969" x2="-1.246" y2="3.969" gradientUnits="objectBoundingBox">
      <stop offset="0" stop-color="#ff5722"/>
      <stop offset="1" stop-color="#ffa726"/>
    </linearGradient>
    <clipPath id="clip-path-24">
      <path id="Path_356" data-name="Path 356" d="M250.022,140.146q-2.481.369-4.915.925a68.846,68.846,0,0,0-21.668,8.9,72.412,72.412,0,0,0-20.849,19.4,60.114,60.114,0,0,0-10.331,23.359c-.175.828-.329,1.674-.45,2.537-4.238,11.978-5.918,29.167,1.242,49.122a68.734,68.734,0,0,0,12.129,2.775q6,.846,17.07,1.374,29.782,1.347,60.961.951,1.031,3.462,3.224,10.042c6.8,10.246,61.272-9.18,58.081-23.651q-3.807-14.928-7.479-25.287a170.913,170.913,0,0,0-6.633-16.277q-2.037-4.2-4.2-8.086-2.037-3.594-4.175-6.844a84.343,84.343,0,0,0-12.816-15.194,53.289,53.289,0,0,0-8.032-6.262,67.7,67.7,0,0,0-22.171-14.481c-.333-.142-.67-.273-1-.4a54.451,54.451,0,0,0-19.411-3.523,61.225,61.225,0,0,0-8.572.616" fill="none"/>
    </clipPath>
    <linearGradient id="linear-gradient-21" x1="-0.796" y1="3.238" x2="-0.791" y2="3.238" xlink:href="#linear-gradient-20"/>
    <clipPath id="clip-path-25">
      <path id="Path_357" data-name="Path 357" d="M261.331,60.556a28.452,28.452,0,0,0-10.437,4.73,24.41,24.41,0,0,0-7.848,8.244,37.075,37.075,0,0,0-3.752,13.238q-.326,3.106-.4,9.619c-.211.293-.433.575-.661.846a8.368,8.368,0,0,0-1.373,1.929,7.733,7.733,0,0,0-.344,2.695v5.153a4.981,4.981,0,0,0,.212,1.453,9.906,9.906,0,0,0,3.038,2.642,13.366,13.366,0,0,0,1.691.582,10.307,10.307,0,0,0,1.111.264l.422.106q1.506.264,3.911.476a42.338,42.338,0,0,0,10.014-.186,58.8,58.8,0,0,0,9.725-2.3q2.8-.9,5.76-2.009,2.536-.978,5.206-2.14.816-.371,1.665-.74,1.958-.872,4.042-1.876,3.805-1.849,8.086-4.176.951-.526,1.823-1,5.844-3.41,7-6.368.768-1.876-1.612-3.013c-.861-.4-2.151-.925-3.858-1.559a4.983,4.983,0,0,1-1.426-1.427,2.6,2.6,0,0,1-.423-1.823A16.914,16.914,0,0,0,291.3,73.768a22.377,22.377,0,0,0-6.976-8.165,29.375,29.375,0,0,0-17.234-5.638,28.474,28.474,0,0,0-5.756.591" fill="none"/>
    </clipPath>
    <linearGradient id="linear-gradient-22" x1="-2.74" y1="9.055" x2="-2.727" y2="9.055" xlink:href="#linear-gradient-20"/>
    <clipPath id="clip-path-26">
      <path id="Path_358" data-name="Path 358" d="M340.1,566.977a139.2,139.2,0,0,1-27.059,3.356A46.3,46.3,0,0,1,301.18,569.2q8.322,36.172,11.362,50.656,7.475,35.617,11.151,64.264,1.268,9.988,2.193,19.765a95.637,95.637,0,0,0,18.391.819,97.955,97.955,0,0,0,18.6-2.774,470.345,470.345,0,0,0,3.461-54.8q.16-11.653-.053-29.516-.26-26.85-.29-29.463-.079-14.531-.264-28.856a144.469,144.469,0,0,1-25.632,7.69M278.745,447.2l.026.052q.294,3.621.556,7.585a350.338,350.338,0,0,0,4.624,35.99q2,10.281,4.782,23.253,2.957.261,8.456.661,11.709.792,13.556.712a155.282,155.282,0,0,0,28.538-3.936q15.435-3.624,25.262-9.513-1.791-58.895-5.629-113.731-.609-9.014-1.295-17.915-19.5-.871-31.233-6.606-2.242-1.084-5.76-5.1-1.928-2.22-5.047-6.183a54.218,54.218,0,0,1-6.633-10.649q-6.612-.057-13.053-.186-14.548-.275-28.249-.9c-16.673,27.151-12.244,62.773,11.1,106.464M350.989,262.12q3.861,15.141,7.5,25.579.342,1,.714,2.378a365.606,365.606,0,0,1,47.3,40.456q1.212,1.269,2.88,2.959,3.273,3.33,8.245,8.324a146.672,146.672,0,0,0,11.758,10.623,75.4,75.4,0,0,0,12,7.953,49.335,49.335,0,0,0,15.274,5.285q13.635,2.193,29.832-4.148a130.856,130.856,0,0,0,14.693-7.109,23.522,23.522,0,0,0-4.836-5.523,48.4,48.4,0,0,0-7.055-5.1q-3.036-1.85-8.166-4.466-2.536-1.295-5.548-2.748a123.823,123.823,0,0,1-11.2-5.893q-7.611-4.968-26.24-20.955-31.606-27.084-34.748-29.727-21.165-17.545-35.091-26.556-4.938-3.2-9.222-5.5a56.572,56.572,0,0,0-12.9-5.364q3.068,12.6,4.809,19.527" fill="none"/>
    </clipPath>
    <linearGradient id="linear-gradient-23" x1="-0.224" y1="1.123" x2="-0.222" y2="1.123" gradientUnits="objectBoundingBox">
      <stop offset="0" stop-color="#1e88e5"/>
      <stop offset="1" stop-color="#26b6f6"/>
    </linearGradient>
    <clipPath id="clip-path-27">
      <path id="Path_359" data-name="Path 359" d="M430.447,153.622a141.037,141.037,0,0,0-15.8,1.375q-7.428.633-21.536,1.743-11.915,1.084-20.452,2.537a125.7,125.7,0,0,0-40.139,13.847q-1.134.66-5.628,2.721-3.965,2.007-4.862,3.541,2.14,3.25,4.175,6.844,2.164,3.885,4.2,8.086,24.395-19.4,65.427-29.6a298.987,298.987,0,0,1,48.092-7.821q-2.8-3.283-12.557-3.284c-.3,0-.608,0-.919.007" fill="none"/>
    </clipPath>
    <linearGradient id="linear-gradient-24" x1="-2.513" y1="7.03" x2="-2.505" y2="7.03" gradientUnits="objectBoundingBox">
      <stop offset="0" stop-color="#afafaf"/>
      <stop offset="1" stop-color="#737373"/>
    </linearGradient>
    <clipPath id="clip-path-28">
      <path id="Path_360" data-name="Path 360" d="M395.831,164.72q-41.039,10.2-65.427,29.6a170.913,170.913,0,0,1,6.633,16.277q3.671,10.359,7.479,25.287c.036.107.062.195.079.265q.814,3.384,1.585,6.448a56.572,56.572,0,0,1,12.9,5.364q.816-.926,1.9-2.167,4.066-4.729,4.492-5.1,23.623-19.606,42.121-28.3a94.664,94.664,0,0,1,11.97-3.752q13.42-3.594,17.043-4.7,21.642-6.554,20.85-12.684-1.008-7.478-34.061-1.876-9.411,1.611-23.412,4.677-11.574,2.537-12.288,2.537-1.212,0-4.227.026-2.379-.342-1.956-2.616,1.269-6.764,12.34-12.419,7.295-3.7,22.99-8.509,16.727-5.1,21.086-7.055,8.744-3.937,6.633-8.164a5.37,5.37,0,0,0-.635-.952,298.987,298.987,0,0,0-48.092,7.821" fill="none"/>
    </clipPath>
    <linearGradient id="linear-gradient-25" x1="-2.06" y1="4.683" x2="-2.054" y2="4.683" gradientUnits="objectBoundingBox">
      <stop offset="0" stop-color="#2d3f58"/>
      <stop offset="1" stop-color="#1976d2"/>
    </linearGradient>
    <clipPath id="clip-path-29">
      <path id="Path_361" data-name="Path 361" d="M174.712,268.224q-4.89,42.359-.4,56.231,5,15.459,23.1,30.917a36.132,36.132,0,0,0,7.029,4.676q-.08-13.344-.634-26.107-.342-7.556-.872-14.9-.738-10.621-3.462-29.463-.871-5.972-2.3-15.616c8.561-8.133,5.675-11.762-2.035-13.794-1.5-.229-3-.485-4.492-.767a81.381,81.381,0,0,1-14.269-4.28q-.929,6.606-1.666,13.106" fill="none"/>
    </clipPath>
    <linearGradient id="linear-gradient-26" x1="-2.191" y1="4.706" x2="-2.176" y2="4.706" gradientUnits="objectBoundingBox">
      <stop offset="0" stop-color="#f4ba9a"/>
      <stop offset="1" stop-color="#e76a24"/>
    </linearGradient>
    <clipPath id="clip-path-30">
      <path id="Path_362" data-name="Path 362" d="M291.4,99.108q-4.281,2.326-8.086,4.176c.265,1.462.439,2.625.529,3.488a5.565,5.565,0,0,1-.608,3.964q-.848,1.215-1.8.792a3.838,3.838,0,0,1-1.533-1.665q-.294-.581-.951-1.928a7.631,7.631,0,0,0-1.11-1.771,2.7,2.7,0,0,1-.238-.264q-2.673,1.164-5.206,2.14a58.545,58.545,0,0,0-6.051,7.954q-4.542,6.9-7.715,9.592a17.961,17.961,0,0,1-5.787,3.435,8.368,8.368,0,0,1-6.606-.422,5.32,5.32,0,0,1-.767-.5c.037.3.069.573.106.82a43.086,43.086,0,0,1-.476,12.155q2.435-.555,4.915-.925a55.812,55.812,0,0,1,27.983,2.907c.334.123.671.254,1,.4q.714-3.41,1.321-5.55a37.375,37.375,0,0,1,2.273-6.13q.9-1.876,4.123-3.249c2.287-.952,3.762-1.921,4.412-2.908a8.651,8.651,0,0,0,1.031-4.861q-.159-5.181-.159-5.206a1.989,1.989,0,0,1,1.295-1.533,3.077,3.077,0,0,0,1.559-1.268q.658-1.638-.4-8.245-.42-2.484-1.242-6.394-.871.475-1.823,1" fill="none"/>
    </clipPath>
    <linearGradient id="linear-gradient-27" x1="-5.207" y1="13.013" x2="-5.186" y2="13.013" xlink:href="#linear-gradient-26"/>
    <clipPath id="clip-path-31">
      <path id="Path_363" data-name="Path 363" d="M191.308,194.712q-6.208,12.975-7,16.224-2.244,9.064-4.836,24.205-1.72,10.093-3.091,19.977a81.381,81.381,0,0,0,14.269,4.28c1.495.282,3,.538,4.492.767-.175-1.251,4.223-5.626,4.011-6.947-.566-4.139-5.66-5.024-6.1-8.829q-3.8-32.634-1.242-49.122c.121-.863.275-1.709.45-2.537q-.453.953-.951,1.982" fill="none"/>
    </clipPath>
    <linearGradient id="linear-gradient-28" x1="-2.14" y1="12.326" x2="-2.126" y2="12.326" gradientUnits="objectBoundingBox">
      <stop offset="0" stop-color="#b62b49"/>
      <stop offset="1" stop-color="#ff5722"/>
    </linearGradient>
    <clipPath id="clip-path-32">
      <path id="Path_364" data-name="Path 364" d="M194.557,256.307q.318,1.981.582,3.858,1.11,7.637,2.035,13.794a621.343,621.343,0,0,0,93.3,3.566q.91-.016,1.823-.052c-.671-2.228,4.424-8.521,3.493-11.332-.232-.7-.911-.584-1.608-.464-.731.125-1.483.25-1.763-.572-.7-2.113-5.407-3.813-5.988-5.574q-2.2-6.581-3.224-10.042-31.178.4-60.961-.951-11.074-.529-17.07-1.374a68.734,68.734,0,0,1-12.129-2.775q.659,5.707,1.506,11.918" fill="none"/>
    </clipPath>
    <linearGradient id="linear-gradient-29" x1="-1.854" y1="14.934" x2="-1.845" y2="14.934" gradientUnits="objectBoundingBox">
      <stop offset="0" stop-color="#f9c13d"/>
      <stop offset="1" stop-color="#ef5350"/>
    </linearGradient>
    <clipPath id="clip-path-33">
      <path id="Path_365" data-name="Path 365" d="M338.7,236.277q-3.067.318-6.659.793a72.4,72.4,0,0,0-15.986,3.964,58.315,58.315,0,0,0-11.178,5.866q-3.33,2.22-10.121,7.188-4.257,3.011-8.323,5.443.871,2.641,1.929,5.813c.549,1.605,1.056,3.129,1.532,4.571q1.395,4.217,2.4,7.558.713,2.457,1.215,4.439,1.531,5.865,3.779,17.678,2.512,13.291,3.831,18.946a110.469,110.469,0,0,0,7.822,23.28,54.218,54.218,0,0,0,6.633,10.649q3.115,3.963,5.047,6.183,3.512,4.017,5.76,5.1,11.733,5.733,31.233,6.606a223.348,223.348,0,0,0,36.36-1.717q10.964-1.269,24.416-3.674-6.238-5.285-13.9-12.947-5.413-5.416-15.748-16.04a37.662,37.662,0,0,0-3.885-3.25q-1.426-1.058-4.413-3.3A27.713,27.713,0,0,1,374.8,323.9a24.619,24.619,0,0,1-5.469-3.568q-4.575-4.123-7.056-15.458-.159-.662-1.8-9.2-.657-3.3-1.268-5.6-.372-1.374-.714-2.378-3.646-10.439-7.5-25.579-1.745-6.922-4.809-19.527-.77-3.066-1.585-6.448c-.017-.07-.043-.158-.079-.265q-2.641.108-5.814.4" fill="none"/>
    </clipPath>
    <linearGradient id="linear-gradient-30" x1="-1.577" y1="3.229" x2="-1.571" y2="3.229" xlink:href="#linear-gradient-26"/>
    <clipPath id="clip-path-35">
      <path id="Path_367" data-name="Path 367" d="M776,7.469q-7.032,5.74-11.706,17.388a121.448,121.448,0,0,0-5.946,19.977q-1.426,6.5-3.646,20.716-2.163,13.608-3.725,20.664a116.854,116.854,0,0,1-6.237,19.923Q682.96,189.8,640.784,246.08q-2.616,3.516-5.179,6.9l.4,8.058a23.981,23.981,0,0,1-.211,5.524.1.1,0,0,1-.026.052,14.949,14.949,0,0,1-2.722,5.919,48.272,48.272,0,0,1-4.44,5.047,23.733,23.733,0,0,1-2.7,2.4,7.606,7.606,0,0,1-2.431,1.242,5.028,5.028,0,0,1-.793.185,5.786,5.786,0,0,1-4.413-1.375,7.9,7.9,0,0,1-1.691-1.743c-8.26,10.94-10.58,21.951-17.313,30.741-10.654,13.953-25.653,33.66-30.741,40.636-8.6,11.785-11.475,16.09-17.678,25.937-3.066,4.968-13.435,31.169-11.69,35.574a24.1,24.1,0,0,0,2.008,3.963,18.455,18.455,0,0,0,6.711,6.369q5.891,3.2,16.2,2.906a35.351,35.351,0,0,0,18.286-5.469q7.95-5.154,18.55-17.837,10.566-12.709,18.946-21.642,8.348-8.931,25.156-31.683,16.828-22.75,33.876-48.567t55.993-76.551q13.928-18.789,24.257-31,4.146-4.968,7.716-8.8,19.105-20.85,38.633-32.4,4.1-2.4,10.437-5.708,3.543-1.8,10.6-5.417,12.66-6.658,19.845-12.763a67.549,67.549,0,0,0,14.295-16.78,68.259,68.259,0,0,0,8.324-20.451q2.672-12.13-.132-21.034A8.722,8.722,0,0,0,866.6,64.44a4.234,4.234,0,0,0-1.452-.872c-.942-.258-33.929,21.3-33.929,21.3a8.515,8.515,0,0,1-4.281-1.717,11.493,11.493,0,0,1-2.774-3.3,26,26,0,0,1-1.8-3.964q-1.926-4.784-2.694-7.346a23.492,23.492,0,0,1-.9-7.689,22.7,22.7,0,0,1,3.144-9.276,73.085,73.085,0,0,1,5.813-8.218l21.351-26.926a18.736,18.736,0,0,0,2.616-4.069,8.116,8.116,0,0,0,.449-1.321,5.418,5.418,0,0,0-.1-3.224,5.981,5.981,0,0,0-3.251-3.25,17.9,17.9,0,0,0-4.861-1.427,75.686,75.686,0,0,0-11.719-.71c-21.392,0-55.4,4.387-56.218,5.043" fill="none"/>
    </clipPath>
    <linearGradient id="linear-gradient-31" x1="-1.035" y1="1.591" x2="-1.033" y2="1.591" xlink:href="#linear-gradient-25"/>
    <clipPath id="clip-path-36">
      <path id="Path_368" data-name="Path 368" d="M524.543,535.876a17.045,17.045,0,0,0-5.311,6.738,39.011,39.011,0,0,0-2.616,8.456q-3.114,15.2-2.3,36.2A296.021,296.021,0,0,0,554.4,725.47q6.048,10.329,14.453,22.645,4.836,7.088,14.216,20.241h31.1q-1.251-1.569-2.431-3.329a90.946,90.946,0,0,1-8.72-17.757q-10.566-28.119-16.329-66.351-2.2-14.532-4.254-34.141-2.244-22.886-3.383-34.272-1.371-13.4-2.537-20.611a124.341,124.341,0,0,0-4.809-20.135,76.69,76.69,0,0,0-9.09-18.63,54.723,54.723,0,0,0-14.348-14.665,29.46,29.46,0,0,0-11.918-4.915,21.051,21.051,0,0,0-3.286-.271,14.3,14.3,0,0,0-8.526,2.6" fill="none"/>
    </clipPath>
    <linearGradient id="linear-gradient-32" x1="-2.737" y1="0.973" x2="-2.732" y2="0.973" xlink:href="#linear-gradient-10"/>
    <clipPath id="clip-path-38">
      <path id="Path_370" data-name="Path 370" d="M746.8,700.658q-5.343.013-10.7.026,1.428,5.865,2.854,11.785,5.558,23.18,11.045,47.326a29.025,29.025,0,0,1-3.54,3.8c-.017,0-.972.793-2.88,2.378-.646.544-1.4,1.179-2.273,1.9-.2.16-.391.318-.581.476a1.018,1.018,0,0,0,.655,1.8h42.152c-.064-.6-.137-1.2-.211-1.8-.074-.792-.159-1.585-.238-2.378q-3.543-32.756-7.267-65.347-14.484.015-29.014.027M646.571,708.32q.546-4.082,1.057-7.716-2.584-.008-5.179-.026,2.219,3.805,4.122,7.742m-41.988,46.9a84.164,84.164,0,0,1-11.521,5.945q-8.007,3.354-11.944,5.153a30.907,30.907,0,0,0-3.911,2.034c-.354.233-.676.46-.978.687a.618.618,0,0,0,.376,1.11h53.451c4.349-8.154,18.2-53.541-1.887-61-2.817-4.381-12.847-6.083-14.311-8.678q-7.5-.023-15.036-.053,2.379,27.009,5.761,54.8" fill="none"/>
    </clipPath>
    <linearGradient id="linear-gradient-33" x1="-2.72" y1="0.707" x2="-2.715" y2="0.707" xlink:href="#linear-gradient-12"/>
    <clipPath id="clip-path-39">
      <path id="Path_371" data-name="Path 371" d="M647.628,700.6c.354.476.862.476,1.532,0Z" fill="none"/>
    </clipPath>
    <linearGradient id="linear-gradient-34" x1="-1025.904" y1="45.388" x2="-1024.321" y2="45.388" xlink:href="#linear-gradient-26"/>
    <clipPath id="clip-path-40">
      <path id="Path_372" data-name="Path 372" d="M576.785,378.255q-4.575,7.346-7.452,11.6a117.5,117.5,0,0,1-8.43,10.914,18.5,18.5,0,0,1-4.915,4.148,6.937,6.937,0,0,1-5.813.767,11.665,11.665,0,0,0-1.532-.556,1.763,1.763,0,0,0-1.428.106,1.8,1.8,0,0,0-.792,1.612,12.739,12.739,0,0,0,.106,2.167,5.194,5.194,0,0,1-7.558,4.175,12.9,12.9,0,0,0,6.474,7.213,17.722,17.722,0,0,0,9.909,2.088,28.04,28.04,0,0,0,9.619-2.721,60.823,60.823,0,0,0,8.772-5.18,189.91,189.91,0,0,0,29.226-25.13q4.122-4.307,8.191-8.983a393.316,393.316,0,0,0,29.252-39q.634-.949,1.269-1.9,1.212-1.848,2.457-3.7a69.882,69.882,0,0,1-14.559-7.294,70.6,70.6,0,0,1-9.7-7.61,67.923,67.923,0,0,1-5.866-6.316q-22.965,40.43-37.231,63.6" fill="none"/>
    </clipPath>
    <linearGradient id="linear-gradient-35" x1="-3.802" y1="3.466" x2="-3.795" y2="3.466" xlink:href="#linear-gradient-26"/>
    <clipPath id="clip-path-41">
      <path id="Path_373" data-name="Path 373" d="M698.891,85.368h-.053a31.055,31.055,0,0,0-12.287,7.848q-5.13,5.152-6.633,13.926-6.888,6.48-8.826,10.913-1.91,4.433,4.281,7.108a49.548,49.548,0,0,0-1.611,10.332q-.216,4.729-.08,7.821a7.656,7.656,0,0,0,1.745,4.889q1.56,1.824,6.579,3.25a47.337,47.337,0,0,1,7.98,2.749,17.528,17.528,0,0,1,5.021,4.359,61.05,61.05,0,0,1,3.831,5.6,36.52,36.52,0,0,1,6.95-6.157,37.546,37.546,0,0,1,10.543-5.074,36.4,36.4,0,0,1,11.2-1.532,33.181,33.181,0,0,1-2.14-9.883,29.73,29.73,0,0,1-.027-3.779,60.5,60.5,0,0,1,.978-8.509q1.689-8.164,2.352-12.234a48.475,48.475,0,0,0,.581-12.5,23.53,23.53,0,0,0-3.964-11.467A20.324,20.324,0,0,0,713.478,85a25.636,25.636,0,0,0-6.729-.919,24.9,24.9,0,0,0-7.858,1.289" fill="none"/>
    </clipPath>
    <linearGradient id="linear-gradient-36" x1="-7.652" y1="10.05" x2="-7.64" y2="10.05" xlink:href="#linear-gradient-26"/>
    <clipPath id="clip-path-43">
      <path id="Path_377" data-name="Path 377" d="M689.721,598.089c4.831,29.6,19.581,47.839,28.063,68.56q2.142-7.008,3.621-13.846a203.024,203.024,0,0,0,4.148-32.026,310.935,310.935,0,0,0-.053-32.37,168.282,168.282,0,0,0-1.8-19.052A74.779,74.779,0,0,0,718.5,551.07q-5.684-12.764-19.025-25.5a66.157,66.157,0,0,0-10.465-8.509,37.622,37.622,0,0,0-4.677-2.536c3.435,17.176-.158,49.635,5.39,83.564" fill="none"/>
    </clipPath>
    <linearGradient id="linear-gradient-37" x1="-4.112" y1="4.539" x2="-4.106" y2="4.539" gradientUnits="objectBoundingBox">
      <stop offset="0" stop-color="#d82d51"/>
      <stop offset="1" stop-color="#fa5070"/>
    </linearGradient>
    <clipPath id="clip-path-44">
      <path id="Path_378" data-name="Path 378" d="M657.352,516.586a37.774,37.774,0,0,0-13.9,15.141,55.9,55.9,0,0,0-5.5,19.554,107.663,107.663,0,0,0,.026,20.664,255.318,255.318,0,0,0,4.836,30.758q2.163,10.124,7.372,30.361,5.177,20.16,7.346,30.361,1.007,4.71,1.824,9.17c1.04-8.6,10-21.457,10.437-34.875,11.214-29.347,13.693-51.131,3.5-95.111.47-5.19-3.261-24.38-2.738-30.621a29.525,29.525,0,0,0-13.212,4.6" fill="none"/>
    </clipPath>
    <linearGradient id="linear-gradient-38" x1="-3.591" y1="4.142" x2="-3.584" y2="4.142" xlink:href="#linear-gradient-37"/>
    <clipPath id="clip-path-46">
      <path id="Path_382" data-name="Path 382" d="M724.39,401.032a42.283,42.283,0,0,0-12.023,10.544,54.475,54.475,0,0,0-11.442,30.757,72.945,72.945,0,0,0,4.942,28.83,100.453,100.453,0,0,0,14.56,25.816,217.2,217.2,0,0,0,14.454,16.542q13.4,14.109,15.167,16.066,5.424,6.063,9.381,11.468-8.309-42.4-20.743-92.089,4.2-27.666,2.51-39.689-.61-4.265-2.193-12.683a32.907,32.907,0,0,0-14.613,4.438" fill="none"/>
    </clipPath>
    <linearGradient id="linear-gradient-39" x1="-4.44" y1="4.981" x2="-4.433" y2="4.981" gradientUnits="objectBoundingBox">
      <stop offset="0" stop-color="#a8aaad"/>
      <stop offset="1" stop-color="#c4c5c7"/>
    </linearGradient>
    <clipPath id="clip-path-47">
      <path id="Path_383" data-name="Path 383" d="M716.331,152.935a37.546,37.546,0,0,0-10.543,5.074,36.52,36.52,0,0,0-6.95,6.157q-.483.567-.951,1.136,2.608,5.62,3.831,8.931c.059.161.111.32.159.475a1.3,1.3,0,0,1-.185.133q-11.914,7.347-22.329,20.954a216.639,216.639,0,0,0-16.568,26.4q-9.567,17.573-18.972,38.659-1.371,3.066-2.721,6.21-2.277,3.936-4.731,8.244c.265.3.539.59.819.872a59.338,59.338,0,0,0,11.151,8.772q2.005,1.243,15.617,8.694,2.853,1.56,4.6,2.484c.967.511,1.691.881,2.166,1.11q.453.211.872.423a37.093,37.093,0,0,1-5.68,11.838,161.984,161.984,0,0,0-9.381,13.4q-2.99,5.6-4.65,8.244a20.6,20.6,0,0,1-4.968,5.629q-1.4-.45-2.775-.9-1.245,1.85-2.457,3.7-.634.953-1.269,1.9,20.16,5.973,54.328,8.879,4.179.355,8.562.66,12.525.893,26.741,1.4L764.5,294.543q9.141-30.441,13.556-49.942,4.383-19.5,3.831-34.14a81.767,81.767,0,0,0-1.875-15.379,39,39,0,0,0-2.537-7.584q-3.861-8.3-8.351-12.446t-8.138-6.923a31,31,0,0,0-8.033-4.333,24.675,24.675,0,0,0-8.3-1.348,56.874,56.874,0,0,0-8.482.713l-1.057.159c-.159-.16-.318-.328-.476-.5q-2.085-3.753-3.224-6.209a44.408,44.408,0,0,1-2.008-5.1c-.486-.038-.983-.064-1.479-.079-.127,0-.26-.013-.4-.026q-.348-.006-.694-.006a36.338,36.338,0,0,0-10.51,1.538" fill="none"/>
    </clipPath>
    <linearGradient id="linear-gradient-40" x1="-3.186" y1="2.743" x2="-3.181" y2="2.743" xlink:href="#linear-gradient-19"/>
    <clipPath id="clip-path-49">
      <path id="Path_387" data-name="Path 387" d="M706.792,70.518q-7.793.687-12,3.276-3.306,2.086-7.875,8.747-.578.873-1.188,1.664a29.045,29.045,0,0,1-6.21,1.982q-2.22.4-3.383.609a21.262,21.262,0,0,0-3.382.871,9.357,9.357,0,0,0-3.038,1.744,6.015,6.015,0,0,0-1.824,2.828,5.174,5.174,0,0,0-.158,2.193c.121.775.882,2.008,2.272,3.7l.027-.026q14.721,13.555,25.763,18.55a74.6,74.6,0,0,1,18.154,11.177q7.134,6.237,15.009,2.669,5.732-2.661,7.663-5.628l.951-6.606-1.163-2.3a9.679,9.679,0,0,0,.793-2.061q1.926-5.389,2.748-8.138a36.267,36.267,0,0,0,1.691-8.4,18.137,18.137,0,0,0-1.11-8.35,20.369,20.369,0,0,0-4.676-6.606,69.9,69.9,0,0,0-6.4-5.312c-.28-.193-.555-.4-.82-.607q-2-1.428-3.117-2.141a26.088,26.088,0,0,0-2.933-1.612q-.714-.316-1.428-.555a4.951,4.951,0,0,0-.607-.211l-.026.027a30.27,30.27,0,0,0-10.2-1.636q-1.727,0-3.546.156" fill="none"/>
    </clipPath>
    <linearGradient id="linear-gradient-41" x1="-9.617" y1="8.856" x2="-9.603" y2="8.856" xlink:href="#linear-gradient-20"/>
    <clipPath id="clip-path-50">
      <path id="Path_388" data-name="Path 388" d="M201.587,445.584a38.4,38.4,0,0,0-5.708,3.092,49.826,49.826,0,0,0-8.06,6.659,96.446,96.446,0,0,0-10.755,13.423,202.373,202.373,0,0,0-25.261,50.92,193.034,193.034,0,0,0-8.06,34.668,184.721,184.721,0,0,0-1.611,21.245,174.3,174.3,0,0,0,8.191,56.178,163.151,163.151,0,0,0,25.949,50.312q2.131,2.8,8.931,10.913,1.824,2.164,3.964,4.7a184.49,184.49,0,0,1,12.34,15.961,124.909,124.909,0,0,1,12.366,24.39,196.927,196.927,0,0,1,7.848,26.345q.461,2,.872,3.963h34.881c-.3-1.5-.65-3.012-1.058-4.545q-4.018-15.117-14.533-30.678-2.377-3.535-7.69-10.543-4.018-5.319-9.723-12.631a226.138,226.138,0,0,1-16.621-23.65,117.429,117.429,0,0,1-15.485-50.814c-.185-2.679-.285-5.4-.317-8.139a121.449,121.449,0,0,1,5.628-38.552,116.162,116.162,0,0,1,8.932-20.691q5.367-9.75,18.814-27.718,5.469-7.3,9.591-13.265a166.653,166.653,0,0,0,9.25-14.508q11.731-21.539,8.455-38.844a38.253,38.253,0,0,0-6.553-15.3,36.972,36.972,0,0,0-12.287-11.125,36.322,36.322,0,0,0-15.987-4.6q-1.134-.064-2.251-.065a34.759,34.759,0,0,0-14.052,2.893" fill="none"/>
    </clipPath>
    <linearGradient id="linear-gradient-42" x1="-0.447" y1="0.981" x2="-0.442" y2="0.981" gradientUnits="objectBoundingBox">
      <stop offset="0" stop-color="#fa5070"/>
      <stop offset="1" stop-color="#b71c1c"/>
    </linearGradient>
    <clipPath id="clip-path-52">
      <path id="Path_392" data-name="Path 392" d="M298.986,355.635q5.049,16.173,16.145,23.756a41.764,41.764,0,0,0,13.9,5.972,96.521,96.521,0,0,0,15.247,2.22q7.333.586,14.639.686-.609-9.014-1.295-17.915-19.5-.871-31.233-6.606-2.242-1.084-5.76-5.1-1.928-2.22-5.047-6.183a54.218,54.218,0,0,1-6.633-10.649q-6.612-.057-13.053-.186a95.489,95.489,0,0,0,3.091,14.005" fill="none"/>
    </clipPath>
    <linearGradient id="linear-gradient-43" x1="-3.883" y1="6.804" x2="-3.869" y2="6.804" gradientUnits="objectBoundingBox">
      <stop offset="0" stop-color="#1976d2"/>
      <stop offset="1" stop-color="#2d3f58"/>
    </linearGradient>
    <clipPath id="clip-path-54">
      <path id="Path_395" data-name="Path 395" d="M278.745,447.2q-27.325-64.115-11.1-106.464-7.934-.355-15.589-.819Q239.341,388.962,278.745,447.2" fill="none"/>
    </clipPath>
    <linearGradient id="linear-gradient-44" x1="-3.445" y1="3.846" x2="-3.43" y2="3.846" xlink:href="#linear-gradient-25"/>
    <clipPath id="clip-path-56">
      <path id="Path_397" data-name="Path 397" d="M798.22.361a71.819,71.819,0,0,0-9.936,1.4,32.372,32.372,0,0,0-8.3,3.039c-.312.169-.624.346-.925.528A27.02,27.02,0,0,0,776,7.469c.048.055.095.108.132.159a10.575,10.575,0,0,0,5.338,3.991,11.244,11.244,0,0,0,4.228.29q1.292-.131,11.706-2.062,10.44-1.909,25.922-1.056,15.489.883,28.828,2.246a5.418,5.418,0,0,0-.1-3.224,5.981,5.981,0,0,0-3.251-3.25,17.9,17.9,0,0,0-4.861-1.427A212.007,212.007,0,0,0,808.979,0q-5.522,0-10.759.361" fill="none"/>
    </clipPath>
    <linearGradient id="linear-gradient-45" x1="-31.207" y1="10.394" x2="-31.168" y2="10.394" gradientUnits="objectBoundingBox">
      <stop offset="0" stop-color="#afafaf"/>
      <stop offset="1" stop-color="#fff"/>
    </linearGradient>
    <clipPath id="clip-path-58">
      <path id="Path_399" data-name="Path 399" d="M674.052,468.573q25.692-66.52,29.252-117.562-4.383-.3-8.562-.66-1.973,50.737-20.69,118.222" fill="none"/>
    </clipPath>
    <linearGradient id="linear-gradient-46" x1="-5.164" y1="7.651" x2="-5.156" y2="7.651" xlink:href="#linear-gradient-25"/>
  </defs>
  <g id="Group_697" data-name="Group 697" transform="translate(0)">
    <g id="Group_580" data-name="Group 580">
      <g id="Group_579" data-name="Group 579" clip-path="url(#clip-path)">
        <rect id="Rectangle_360" data-name="Rectangle 360" width="85.723" height="73.428" transform="matrix(0.255, -0.967, 0.967, 0.255, 21.469, 598.137)" fill="url(#linear-gradient)"/>
      </g>
    </g>
    <g id="Group_582" data-name="Group 582">
      <g id="Group_581" data-name="Group 581" clip-path="url(#clip-path-2)">
        <rect id="Rectangle_361" data-name="Rectangle 361" width="76.035" height="40.542" transform="translate(46.463 476.648) rotate(-88.012)" fill="url(#linear-gradient-2)"/>
      </g>
    </g>
    <g id="Group_584" data-name="Group 584">
      <g id="Group_583" data-name="Group 583" clip-path="url(#clip-path-3)">
        <rect id="Rectangle_362" data-name="Rectangle 362" width="191.134" height="165.702" transform="translate(392.371 207.32) rotate(-66.675)" fill="url(#linear-gradient-3)"/>
      </g>
    </g>
    <g id="Group_586" data-name="Group 586">
      <g id="Group_585" data-name="Group 585" clip-path="url(#clip-path-4)">
        <rect id="Rectangle_363" data-name="Rectangle 363" width="168.9" height="160.114" transform="matrix(0.642, -0.767, 0.767, 0.642, -76.804, 489.842)" fill="url(#linear-gradient-4)"/>
      </g>
    </g>
    <g id="Group_588" data-name="Group 588">
      <g id="Group_587" data-name="Group 587" clip-path="url(#clip-path-5)">
        <rect id="Rectangle_364" data-name="Rectangle 364" width="179.567" height="178.571" transform="translate(472.774 80.708) rotate(-37.631)" fill="url(#linear-gradient-5)"/>
      </g>
    </g>
    <g id="Group_590" data-name="Group 590">
      <g id="Group_589" data-name="Group 589" clip-path="url(#clip-path-6)">
        <path id="Path_335" data-name="Path 335" d="M360.37,650.055q10.131,9.537,18.179,18.338,26.739,29.229,39.135,61.675a130.673,130.673,0,0,1,8.694,38.288H480.97a270.807,270.807,0,0,1-24.785-65.637c.009-.006.009-.011,0-.027a976.852,976.852,0,0,1-71.03-115.817q-13.428-25.559-23.728-48.832a321.935,321.935,0,0,0-5.259,61.33,343.417,343.417,0,0,0,4.2,50.682m67.276-90.926a16.632,16.632,0,0,0-3.039,4.307q-1.268,2.585-1.823,10.464-.523,7.912,4.439,22.963a201.948,201.948,0,0,0,10.252,25.843,207.268,207.268,0,0,0,11.1,19.9,264.909,264.909,0,0,1,4.7-53.614q1.475-7.73,3.541-16.014A60.75,60.75,0,0,0,451,565.92a31.591,31.591,0,0,0-12.128-8.033,15.166,15.166,0,0,0-6-.925,7.578,7.578,0,0,0-5.232,2.167m10.94-171.784q-.1,6.723.29,13.371,2.3,39.609,22.593,67.778,11.336,15.72,23.7,16.383a18.051,18.051,0,0,0,2.193-.026q7.056-18.392,10.093-26.98a429.261,429.261,0,0,0,13.292-44.208,79.23,79.23,0,0,0,2.378-16.726q.105-9.3-3.7-15.828-6.342-10.782-21.193-12.657a49.246,49.246,0,0,0-26.583,4.122,94.475,94.475,0,0,0-23.068,14.771" fill="#f9c13d"/>
        <path id="Path_336" data-name="Path 336" d="M378.55,668.393q-8.046-8.8-18.18-18.338A368.969,368.969,0,0,0,370.7,695.874a392.609,392.609,0,0,0,29.384,72.482h26.292a130.686,130.686,0,0,0-8.694-38.289q-12.39-32.447-39.134-61.674" fill="#cf9835"/>
      </g>
    </g>
    <g id="Group_592" data-name="Group 592">
      <g id="Group_591" data-name="Group 591" clip-path="url(#clip-path-7)">
        <rect id="Rectangle_366" data-name="Rectangle 366" width="235.108" height="339.561" transform="matrix(0.927, -0.375, 0.375, 0.927, 251.703, 431.785)" fill="url(#linear-gradient-6)"/>
      </g>
    </g>
    <g id="Group_594" data-name="Group 594">
      <g id="Group_593" data-name="Group 593" clip-path="url(#clip-path-8)">
        <rect id="Rectangle_367" data-name="Rectangle 367" width="127.217" height="148.235" transform="translate(399.206 666.539) rotate(-25.867)" fill="url(#linear-gradient-7)"/>
      </g>
    </g>
    <g id="Group_596" data-name="Group 596">
      <g id="Group_595" data-name="Group 595" clip-path="url(#clip-path-6)">
        <path id="Path_339" data-name="Path 339" d="M456.818,572.975q1.6,2.252,3.25,4.862a235.312,235.312,0,0,1,15.194,29.542q4.464,10.171,12.9,30.7,4.281,9.988,17.52,38.342,11.152,23.94,16.964,38.553,7.928,19.794,15.617,45.318,1.077,3.582,2.351,8.059H739.452a182.353,182.353,0,0,1-32.026-26.926q-24.71-25.844-48.7-68.148-27.642-48.753-40.561-90.636Q602.334,531.357,606.8,485.8q.531-5.414,2.061-16.594,1.53-11.019,2.061-16.647,1.848-19.369-1.426-32.872a49.216,49.216,0,0,0-6.791-15.432,50.137,50.137,0,0,0-11.416-12.419,37.325,37.325,0,0,0-14.375-7,27.914,27.914,0,0,0-15.643.767q-13.793,4.834-23.306,23.517a159.861,159.861,0,0,0-7.134,16.832q-2.118,5.734-6.263,17.282a138.443,138.443,0,0,1-7.32,16.515,68.118,68.118,0,0,1-10.331,14.56A38.314,38.314,0,0,1,496.983,482a23.426,23.426,0,0,1-9.618,2.854q-2.823,7.373-6.289,16.3-10.6,27.325-15.934,43.389-4.947,14.941-8.324,28.432" fill="#dfe0e1"/>
      </g>
    </g>
    <g id="Group_598" data-name="Group 598">
      <g id="Group_597" data-name="Group 597" clip-path="url(#clip-path-10)">
        <rect id="Rectangle_369" data-name="Rectangle 369" width="351.455" height="330.301" transform="translate(-59.062 567.215) rotate(-23.419)" fill="url(#linear-gradient-8)"/>
      </g>
    </g>
    <g id="Group_600" data-name="Group 600">
      <g id="Group_599" data-name="Group 599" clip-path="url(#clip-path-11)">
        <rect id="Rectangle_370" data-name="Rectangle 370" width="463.218" height="581.764" transform="matrix(0.973, -0.231, 0.231, 0.973, -69.503, 281.954)" fill="url(#linear-gradient-9)"/>
      </g>
    </g>
    <g id="Group_602" data-name="Group 602">
      <g id="Group_601" data-name="Group 601" clip-path="url(#clip-path-12)">
        <rect id="Rectangle_371" data-name="Rectangle 371" width="168.001" height="182.911" transform="translate(33.214 400.621) rotate(-32.432)" fill="url(#linear-gradient-10)"/>
      </g>
    </g>
    <g id="Group_604" data-name="Group 604">
      <g id="Group_603" data-name="Group 603" clip-path="url(#clip-path-13)">
        <rect id="Rectangle_372" data-name="Rectangle 372" width="391.908" height="574.589" transform="translate(156.995 67.493) rotate(-19.277)" fill="url(#linear-gradient-11)"/>
      </g>
    </g>
    <g id="Group_606" data-name="Group 606">
      <g id="Group_605" data-name="Group 605" clip-path="url(#clip-path-14)">
        <rect id="Rectangle_373" data-name="Rectangle 373" width="71.424" height="49.279" transform="translate(321.404 770.266) rotate(-86.248)" fill="url(#linear-gradient-12)"/>
      </g>
    </g>
    <g id="Group_608" data-name="Group 608">
      <g id="Group_607" data-name="Group 607" clip-path="url(#clip-path-15)">
        <rect id="Rectangle_374" data-name="Rectangle 374" width="94.063" height="94.113" transform="translate(102.66 731.831) rotate(-44.832)" fill="url(#linear-gradient-13)"/>
      </g>
    </g>
    <g id="Group_610" data-name="Group 610">
      <g id="Group_609" data-name="Group 609" clip-path="url(#clip-path-6)">
        <path id="Path_346" data-name="Path 346" d="M283.845,106.772c-.09-.863-.264-2.026-.529-3.488q-2.084,1.005-4.042,1.876-.849.37-1.665.74a2.7,2.7,0,0,0,.238.264,7.621,7.621,0,0,1,1.109,1.771q.658,1.347.952,1.929a3.845,3.845,0,0,0,1.532,1.664c.635.282,1.232.018,1.8-.792a5.57,5.57,0,0,0,.608-3.964" fill="#1a237e"/>
        <path id="Path_347" data-name="Path 347" d="M256.919,112.347a42.345,42.345,0,0,1-10.015.185q-2.4-.211-3.911-.476l-.422-.105a10.472,10.472,0,0,1-1.11-.265q-.263,13.134,4.016,16.41a5.283,5.283,0,0,0,.767.5,8.368,8.368,0,0,0,6.606.423,17.979,17.979,0,0,0,5.787-3.435q3.171-2.7,7.716-9.592a58.339,58.339,0,0,1,6.051-7.954q-2.958,1.11-5.761,2.008a58.8,58.8,0,0,1-9.724,2.3" fill="#1a237e"/>
        <path id="Path_348" data-name="Path 348" d="M192.338,556.645q-2.854-1.824-4.889-3.013-9.06,55.832-23.808,115.844-1.371,5.574-7.821,26.266a222.339,222.339,0,0,0,43.6,5.364q6.048-9.537,11.732-20.241a500.127,500.127,0,0,0,40.429-102.447q1.9-6.975,3.805-14.586c-.28.037-.539.063-.766.079q-19.716.951-27.085.846-16.567-.261-26.477-3.62a42.231,42.231,0,0,1-8.72-4.492M359.207,290.077q.611,2.3,1.269,5.6,1.639,8.535,1.8,9.2,2.482,11.337,7.056,15.458A24.607,24.607,0,0,0,374.8,323.9a27.686,27.686,0,0,0,5.655,5.522q2.99,2.247,4.413,3.3a37.541,37.541,0,0,1,3.885,3.251Q399.079,346.6,404.5,352.015q7.667,7.663,13.9,12.948,1.561,1.321,3.065,2.51,20.53,16.278,40.719,16.489a48.219,48.219,0,0,0,10.623-1.216,70.378,70.378,0,0,0,12.525-3.884q14.9-6.183,17.361-15.115a11.356,11.356,0,0,0-1.506-9.327,130.908,130.908,0,0,1-14.692,7.108c-10.8,4.228-110.5-59.419-127.286-71.451m-91.56,50.655c-3.266-10.092-59.8-13.2-63.788-6.765a.078.078,0,0,1-.053-.026q.555,12.762.634,26.107.159,24.1-1.295,50.1-2.037,37.021-8.323,90.741c-.143,1.163-.28,2.336-.423,3.515a121.229,121.229,0,0,0,14.058,5.073,193.326,193.326,0,0,0,20.69,4.994,70.6,70.6,0,0,0,8.984.212q7.667-.079,15.934-.476,7.238-.4,12.208-.845,3.147-16.593,7.795-42.464,2.751-13.53,4.7-23.65c-.006-.012-.016-.03-.027-.053q-27.325-64.113-11.1-106.463" fill="#1976d2"/>
      </g>
    </g>
    <g id="Group_612" data-name="Group 612">
      <g id="Group_611" data-name="Group 611" clip-path="url(#clip-path-17)">
        <rect id="Rectangle_376" data-name="Rectangle 376" width="44.431" height="76.646" transform="translate(180.912 563.192) rotate(-75.968)" fill="url(#linear-gradient-14)"/>
      </g>
    </g>
    <g id="Group_614" data-name="Group 614">
      <g id="Group_613" data-name="Group 613" clip-path="url(#clip-path-18)">
        <rect id="Rectangle_377" data-name="Rectangle 377" width="39.71" height="76.956" transform="translate(187.28 525.594) rotate(-75.968)" fill="url(#linear-gradient-15)"/>
      </g>
    </g>
    <g id="Group_616" data-name="Group 616">
      <g id="Group_615" data-name="Group 615" clip-path="url(#clip-path-19)">
        <rect id="Rectangle_378" data-name="Rectangle 378" width="71.798" height="39.686" transform="matrix(0.989, -0.145, 0.145, 0.989, 293.26, 540.897)" fill="url(#linear-gradient-16)"/>
      </g>
    </g>
    <g id="Group_618" data-name="Group 618">
      <g id="Group_617" data-name="Group 617" clip-path="url(#clip-path-20)">
        <rect id="Rectangle_379" data-name="Rectangle 379" width="79.142" height="36.39" transform="matrix(0.989, -0.145, 0.145, 0.989, 285.056, 502.54)" fill="url(#linear-gradient-17)"/>
      </g>
    </g>
    <g id="Group_620" data-name="Group 620">
      <g id="Group_619" data-name="Group 619" clip-path="url(#clip-path-21)">
        <rect id="Rectangle_380" data-name="Rectangle 380" width="47.407" height="78.842" transform="translate(182.681 545.887) rotate(-74.785)" fill="url(#linear-gradient-18)"/>
      </g>
    </g>
    <g id="Group_622" data-name="Group 622">
      <g id="Group_621" data-name="Group 621" clip-path="url(#clip-path-22)">
        <rect id="Rectangle_381" data-name="Rectangle 381" width="77.841" height="45.606" transform="translate(287.078 518.382) rotate(-7.048)" fill="url(#linear-gradient-19)"/>
      </g>
    </g>
    <g id="Group_624" data-name="Group 624">
      <g id="Group_623" data-name="Group 623" clip-path="url(#clip-path-23)">
        <rect id="Rectangle_382" data-name="Rectangle 382" width="142.503" height="132.679" transform="translate(153.381 297.381) rotate(-34.765)" fill="url(#linear-gradient-20)"/>
      </g>
    </g>
    <g id="Group_626" data-name="Group 626">
      <g id="Group_625" data-name="Group 625" clip-path="url(#clip-path-24)">
        <rect id="Rectangle_383" data-name="Rectangle 383" width="205.919" height="206.999" transform="matrix(0.69, -0.724, 0.724, 0.69, 120.844, 207.804)" fill="url(#linear-gradient-21)"/>
      </g>
    </g>
    <g id="Group_628" data-name="Group 628">
      <g id="Group_627" data-name="Group 627" clip-path="url(#clip-path-25)">
        <rect id="Rectangle_384" data-name="Rectangle 384" width="82.923" height="80.078" transform="translate(211.738 77.165) rotate(-34.765)" fill="url(#linear-gradient-22)"/>
      </g>
    </g>
    <g id="Group_630" data-name="Group 630">
      <g id="Group_629" data-name="Group 629" clip-path="url(#clip-path-26)">
        <rect id="Rectangle_385" data-name="Rectangle 385" width="519.689" height="478.673" transform="matrix(0.604, -0.797, 0.797, 0.604, 28.398, 536.411)" fill="url(#linear-gradient-23)"/>
      </g>
    </g>
    <g id="Group_632" data-name="Group 632">
      <g id="Group_631" data-name="Group 631" clip-path="url(#clip-path-27)">
        <rect id="Rectangle_386" data-name="Rectangle 386" width="127.112" height="91.487" transform="translate(305.595 161.961) rotate(-26.926)" fill="url(#linear-gradient-24)"/>
      </g>
    </g>
    <g id="Group_634" data-name="Group 634">
      <g id="Group_633" data-name="Group 633" clip-path="url(#clip-path-28)">
        <rect id="Rectangle_387" data-name="Rectangle 387" width="153.959" height="136.047" transform="translate(295.828 172.808) rotate(-24.707)" fill="url(#linear-gradient-25)"/>
      </g>
    </g>
    <g id="Group_636" data-name="Group 636">
      <g id="Group_635" data-name="Group 635" clip-path="url(#clip-path-29)">
        <rect id="Rectangle_388" data-name="Rectangle 388" width="70.066" height="110.272" transform="matrix(0.932, -0.362, 0.362, 0.932, 135.911, 268.869)" fill="url(#linear-gradient-26)"/>
      </g>
    </g>
    <g id="Group_638" data-name="Group 638">
      <g id="Group_637" data-name="Group 637" clip-path="url(#clip-path-30)">
        <rect id="Rectangle_389" data-name="Rectangle 389" width="47.349" height="52" transform="translate(243.263 143.374) rotate(-87.668)" fill="url(#linear-gradient-27)"/>
      </g>
    </g>
    <g id="Group_640" data-name="Group 640">
      <g id="Group_639" data-name="Group 639" clip-path="url(#clip-path-31)">
        <rect id="Rectangle_390" data-name="Rectangle 390" width="71.168" height="46.073" transform="matrix(0.366, -0.931, 0.931, 0.366, 153.407, 251.13)" fill="url(#linear-gradient-28)"/>
      </g>
    </g>
    <g id="Group_642" data-name="Group 642">
      <g id="Group_641" data-name="Group 641" clip-path="url(#clip-path-32)">
        <rect id="Rectangle_391" data-name="Rectangle 391" width="104.014" height="35.327" transform="translate(192.706 244.393) rotate(-0.577)" fill="url(#linear-gradient-29)"/>
      </g>
    </g>
    <g id="Group_644" data-name="Group 644">
      <g id="Group_643" data-name="Group 643" clip-path="url(#clip-path-33)">
        <rect id="Rectangle_392" data-name="Rectangle 392" width="169.666" height="171.486" transform="translate(243.688 251.146) rotate(-19.652)" fill="url(#linear-gradient-30)"/>
      </g>
    </g>
    <g id="Group_646" data-name="Group 646">
      <g id="Group_645" data-name="Group 645" clip-path="url(#clip-path-6)">
        <path id="Path_366" data-name="Path 366" d="M640.784,246.081c-.2-.106-.359-.194-.5-.264a8.309,8.309,0,0,0-2.51-.819,7.153,7.153,0,0,0-4.651,1.268,18.9,18.9,0,0,0-3.858,3.382,72.43,72.43,0,0,0-8.8,11.653,71.018,71.018,0,0,0-5.708,11.812,12.61,12.61,0,0,0,.687,3.012,8.407,8.407,0,0,0,1.136,2.167,7.925,7.925,0,0,0,1.691,1.744,5.79,5.79,0,0,0,4.413,1.374,5.028,5.028,0,0,0,.793-.185,7.606,7.606,0,0,0,2.431-1.242,23.789,23.789,0,0,0,2.7-2.4,48.5,48.5,0,0,0,4.44-5.047,14.959,14.959,0,0,0,2.721-5.919.093.093,0,0,0,.027-.053,23.975,23.975,0,0,0,.211-5.523l-.4-8.059q2.561-3.382,5.179-6.9" fill="#f4ba9a"/>
      </g>
    </g>
    <g id="Group_648" data-name="Group 648">
      <g id="Group_647" data-name="Group 647" clip-path="url(#clip-path-35)">
        <rect id="Rectangle_394" data-name="Rectangle 394" width="458.707" height="511.371" transform="translate(400.51 52.839) rotate(-20.216)" fill="url(#linear-gradient-31)"/>
      </g>
    </g>
    <g id="Group_650" data-name="Group 650">
      <g id="Group_649" data-name="Group 649" clip-path="url(#clip-path-36)">
        <rect id="Rectangle_395" data-name="Rectangle 395" width="174.201" height="255.197" transform="translate(438.748 560.338) rotate(-19.833)" fill="url(#linear-gradient-32)"/>
      </g>
    </g>
    <g id="Group_652" data-name="Group 652">
      <g id="Group_651" data-name="Group 651" clip-path="url(#clip-path-6)">
        <path id="Path_369" data-name="Path 369" d="M618.27,280.036a7.925,7.925,0,0,1-1.691-1.744q-12.39,16.41-22.487,29.6-15.99,20.928-23.623,31.392-12.9,17.679-22.2,32.449a126.453,126.453,0,0,0-6.843,12.261,44.209,44.209,0,0,0-3.991,13.292,27.919,27.919,0,0,0,1.718,13.9,24.147,24.147,0,0,0,2.008,3.964,51.28,51.28,0,0,1,1.084-9.8,75.545,75.545,0,0,1,5.628-16.568q2.964-6.393,13.476-21.351,10.536-14.959,28.248-38.658,17.733-23.674,33.876-47.538a5.054,5.054,0,0,1-.793.185,5.788,5.788,0,0,1-4.413-1.374M754.778,108.622q-1.363-1-2.8-2.14-3.685-2.917-5.628-4.413-.777,2.109-1.612,4.069Q682.96,189.8,640.784,246.081q-2.616,3.515-5.179,6.9l.4,8.059a24.031,24.031,0,0,1-.211,5.523.093.093,0,0,1-.027.053q4.313-5.057,25.13-30.018,20.84-24.937,41.2-53.562,20.349-28.6,31.788-41.909,11.439-13.29,16.436-22.989,2.5-4.833,4.466-9.513" fill="#afafaf"/>
      </g>
    </g>
    <g id="Group_654" data-name="Group 654">
      <g id="Group_653" data-name="Group 653" clip-path="url(#clip-path-38)">
        <rect id="Rectangle_397" data-name="Rectangle 397" width="211.118" height="173.853" transform="translate(543.614 722.203) rotate(-33.981)" fill="url(#linear-gradient-33)"/>
      </g>
    </g>
    <g id="Group_656" data-name="Group 656">
      <g id="Group_655" data-name="Group 655" clip-path="url(#clip-path-39)">
        <rect id="Rectangle_398" data-name="Rectangle 398" width="0.632" height="1.573" transform="matrix(0.103, -0.995, 0.995, 0.103, 647.579, 701.075)" fill="url(#linear-gradient-34)"/>
      </g>
    </g>
    <g id="Group_658" data-name="Group 658">
      <g id="Group_657" data-name="Group 657" clip-path="url(#clip-path-40)">
        <rect id="Rectangle_399" data-name="Rectangle 399" width="137.5" height="135.744" transform="matrix(0.341, -0.94, 0.94, 0.341, 504.298, 410.167)" fill="url(#linear-gradient-35)"/>
      </g>
    </g>
    <g id="Group_660" data-name="Group 660">
      <g id="Group_659" data-name="Group 659" clip-path="url(#clip-path-41)">
        <rect id="Rectangle_400" data-name="Rectangle 400" width="85.84" height="67.784" transform="translate(661.589 163.311) rotate(-84.07)" fill="url(#linear-gradient-36)"/>
      </g>
    </g>
    <g id="Group_662" data-name="Group 662">
      <g id="Group_661" data-name="Group 661" clip-path="url(#clip-path-6)">
        <path id="Path_374" data-name="Path 374" d="M725.447,683.244q-14.832,22.941-22.2,37.733a205.793,205.793,0,0,0-16.3,45h23.57q3.393-8.966,7.928-18.18a348.817,348.817,0,0,1,20.505-35.329q-1.426-5.914-2.854-11.785a148.689,148.689,0,0,1-10.649-17.44M816.8,544.754q.77-6.492,1.189-13.027,2.561-39.771-8.244-70.289A118.378,118.378,0,0,0,793.2,429.993a97.459,97.459,0,0,0-25.6-24.31q-14.96-9.645-28.089-9.116c-.169.007-.338.016-.5.026,1.057,5.613-8.234,14.586-7.827,17.429,1.131,8.015-.724,19.1-3.525,37.544,8.287,33.126,26.239,61.22,31.778,89.489q2.117,2.885,3.8,5.575a68.409,68.409,0,0,1,8.509,19.448q3.963,15.934-1.084,34.933c-.206.782-.428,1.565-.66,2.352q4.105,29.648,5.522,54.54,8.649-13.762,14.4-24.918a256.562,256.562,0,0,0,19.264-49.176q3.377-12.216,5.522-24.6a126.744,126.744,0,0,0-5.443-27.428,140.673,140.673,0,0,0-11.547-25.209q-4.7-8.268-14.877-23.6a140.458,140.458,0,0,1-8.3-13.767,42.8,42.8,0,0,1-4.65-15.035,11.31,11.31,0,0,1,.264-4.175,4.534,4.534,0,0,1,2.325-3.039q2.4-1.295,6.4,1,10.3,5.575,17.969,16.911A90.357,90.357,0,0,1,807.68,487.73q6.4,19.287,8.429,44.71.42,5.224.687,12.314" fill="#c4c5c7"/>
        <path id="Path_375" data-name="Path 375" d="M613.858,700.472q2.2,3.893,6.421,10.464,12.921,21.642,11.151,48.251a92.56,92.56,0,0,1-1.374,10.966h8.773c.074-.6,2.563-3.52,2.87-4.038,14.174-24.078,13.238-41.9,4.872-57.795q-1.9-3.941-4.122-7.742-14.262-.04-28.591-.106" fill="#952741"/>
        <path id="Path_376" data-name="Path 376" d="M635.208,689.665a46.412,46.412,0,0,0-6.421-7.214,22.082,22.082,0,0,0-8.112-4.73,11.325,11.325,0,0,0-3.8-.581,7.178,7.178,0,0,0-3.594.978,6.846,6.846,0,0,0-2.907,3.54,12.455,12.455,0,0,0-.872,4.783q0,5.763,3.647,12.71c.222.413.46.856.713,1.322q14.332.063,28.591.1a112.464,112.464,0,0,0-7.24-10.913" fill="#d82d51"/>
      </g>
    </g>
    <g id="Group_664" data-name="Group 664">
      <g id="Group_663" data-name="Group 663" clip-path="url(#clip-path-43)">
        <rect id="Rectangle_402" data-name="Rectangle 402" width="152.885" height="44.776" transform="matrix(0.019, -1, 1, 0.019, 681.314, 666.595)" fill="url(#linear-gradient-37)"/>
      </g>
    </g>
    <g id="Group_666" data-name="Group 666">
      <g id="Group_665" data-name="Group 665" clip-path="url(#clip-path-44)">
        <rect id="Rectangle_403" data-name="Rectangle 403" width="161.447" height="49.195" transform="translate(634.288 672.538) rotate(-88.923)" fill="url(#linear-gradient-38)"/>
      </g>
    </g>
    <g id="Group_668" data-name="Group 668">
      <g id="Group_667" data-name="Group 667" clip-path="url(#clip-path-6)">
        <path id="Path_379" data-name="Path 379" d="M676.7,512.226a26.557,26.557,0,0,0-6.131-.238q-.785,9.363-1.479,17.15-6.128,67.54-7.505,110.427-.657,20.12-2.219,33.03,2.124,11.605,2.986,21.562a70.633,70.633,0,0,1,.317,9.011,29.983,29.983,0,0,1-1.639,8.826,11.13,11.13,0,0,1-3.118,4.7,4.886,4.886,0,0,1-4.809,1.321,5.613,5.613,0,0,1-2.933-2.3,19,19,0,0,1-1.823-3.514q-.849-1.957-1.771-3.884-3.082,22.814-7.531,60.035c-.068.6-.137,1.2-.211,1.8h-8.773c-.079.434-.169.867-.264,1.295h28.961q3.377-4.6,7.187-9.8,14.11-19.605,23.227-34.273,19.842-31.906,28.618-60.723-12.724-31.082-19.977-75.467-8.324-50.894-13.476-76.657a28.614,28.614,0,0,0-7.637-2.3" fill="#fa5070"/>
        <path id="Path_380" data-name="Path 380" d="M694.742,350.351q-34.167-2.907-54.328-8.878a393.562,393.562,0,0,1-29.252,39q-4.066,4.677-8.191,8.984-8.745,80.779-14.481,176.3-5.763,95.547,10.332,134.658,7.531.031,15.035.053c-.253-.466-.491-.909-.713-1.322q-3.646-6.951-3.647-12.71a12.455,12.455,0,0,1,.872-4.783,6.846,6.846,0,0,1,2.907-3.54,7.178,7.178,0,0,1,3.594-.978,11.351,11.351,0,0,1,3.8.581,22.074,22.074,0,0,1,8.112,4.73,46.358,46.358,0,0,1,6.421,7.214,112.274,112.274,0,0,1,7.24,10.913q2.594.016,5.18.027h1.532q1.88-1.372,5.523-8.033,2.918-5.384,4.677-19.977-.816-4.462-1.823-9.169-2.164-10.2-7.346-30.362-5.208-20.238-7.373-30.361a255.106,255.106,0,0,1-4.835-30.758,107.749,107.749,0,0,1-.027-20.664,55.918,55.918,0,0,1,5.5-19.554,37.774,37.774,0,0,1,13.9-15.141,29.545,29.545,0,0,1,13.212-4.6q1.569-18.6,3.488-43.415c16.2-45.9,24.77-85.724,20.69-118.222" fill="#1e88e5"/>
        <path id="Path_381" data-name="Path 381" d="M703.3,351.011q-4.383-.3-8.562-.661-1.974,50.739-20.69,118.223,2.751,13.713,6.5,28.591,1.609,6.4,3.778,17.36a37.787,37.787,0,0,1,4.678,2.537,66.142,66.142,0,0,1,10.464,8.509q13.341,12.738,19.025,25.5a74.831,74.831,0,0,1,5.206,18.286,168.513,168.513,0,0,1,1.8,19.052,310.36,310.36,0,0,1,.053,32.369,202.916,202.916,0,0,1-4.148,32.027q-1.484,6.832-3.62,13.846,3.613,8.847,7.662,16.594a148.6,148.6,0,0,0,10.649,17.44q5.359-.008,10.7-.026,14.531-.008,29.014-.027a386.52,386.52,0,0,0-.29-42.728Q774.1,633.011,770,603.363q-4-28.887-10.57-62.309c-2.637-3.6-10.844-24.923-23.872-44.831-11.716-17.895-6.822-104.567,3.446-99.63q-2.877-15.264-8.958-44.182-14.221-.509-26.741-1.4" fill="#1976d2"/>
      </g>
    </g>
    <g id="Group_670" data-name="Group 670">
      <g id="Group_669" data-name="Group 669" clip-path="url(#clip-path-46)">
        <rect id="Rectangle_405" data-name="Rectangle 405" width="147.764" height="67.536" transform="translate(691.801 540.524) rotate(-86.526)" fill="url(#linear-gradient-39)"/>
      </g>
    </g>
    <g id="Group_672" data-name="Group 672">
      <g id="Group_671" data-name="Group 671" clip-path="url(#clip-path-47)">
        <rect id="Rectangle_406" data-name="Rectangle 406" width="192.413" height="231.622" transform="translate(586.707 164.524) rotate(-14.806)" fill="url(#linear-gradient-40)"/>
      </g>
    </g>
    <g id="Group_674" data-name="Group 674">
      <g id="Group_673" data-name="Group 673" clip-path="url(#clip-path-6)">
        <path id="Path_384" data-name="Path 384" d="M636.371,275.306q-.579-.66-1.136-1.3a53.33,53.33,0,0,0-6.554,9.143q-3.963,7.109-6.156,10.49-4.733,6.686-6.924,10.094a38.334,38.334,0,0,0-3.91,7.848q1.11,1.56,2.325,3.066a68.04,68.04,0,0,0,5.866,6.315,70.576,70.576,0,0,0,9.7,7.61,69.859,69.859,0,0,0,14.56,7.293q1.371.45,2.774.9a20.577,20.577,0,0,0,4.968-5.628q1.665-2.643,4.651-8.245a162.161,162.161,0,0,1,9.38-13.4,37.113,37.113,0,0,0,5.682-11.838q-.421-.212-.872-.423-.714-.344-2.167-1.11-1.745-.924-4.6-2.484-13.611-7.451-15.617-8.693a59.339,59.339,0,0,1-11.151-8.773c-.28-.282-.555-.572-.819-.872" fill="#b62b49"/>
        <path id="Path_385" data-name="Path 385" d="M725.315,93.031A20.329,20.329,0,0,0,713.477,85a24.8,24.8,0,0,0-14.586.37q-1.214,9.011-1.533,14.243a72.261,72.261,0,0,0,.978,17.783q2.2,11.6,9.063,16.568a22.077,22.077,0,0,0,11.944,3.858,47.135,47.135,0,0,0,6.025-.079,60.343,60.343,0,0,1,.978-8.509q1.688-8.164,2.351-12.234a48.522,48.522,0,0,0,.582-12.5,23.53,23.53,0,0,0-3.964-11.468" fill="#2d3f58"/>
        <path id="Path_386" data-name="Path 386" d="M686.26,131.32q-2.1.84-3.726-1.9-1.625-2.721-3.356-3.092-1.7-.342-4.016-.582-2.292-.239-2.458,1.612a3.761,3.761,0,0,0,.423,2.59,1.6,1.6,0,0,0,.978.581q1.055.291,1.189.344a2.072,2.072,0,0,1,1.057,1.48,3.218,3.218,0,0,1-.132,1.955,6.725,6.725,0,0,1-1.057,1.638q-.055.053-2.616,1.216-2.538,1.194-3.647,6.632a33.99,33.99,0,0,0-.185,11.574q.9,6.112,6.923,7.161a22.086,22.086,0,0,0,12.79-1.85q6.785-2.894,4.571-5.522-.435.033-1.612-4.994-1.189-5.206.872-8.615t3.858-6.13q.531-.819,2.616-3.515a25.863,25.863,0,0,0,2.405-3.62,9.959,9.959,0,0,0,1.03-4.307,37.623,37.623,0,0,0-.845-6.738q-.832-4.311-3.065-2.537a8.938,8.938,0,0,0-2.907,3.488,17.617,17.617,0,0,1-.766,1.876q-.12.2-.238.37c-.439.656-.767,1.122-.978,1.4q-1.165,1.556-2.22,3.065a20.135,20.135,0,0,0-1.929,3.567,5.034,5.034,0,0,1-2.959,2.854" fill="#2d3f58"/>
      </g>
    </g>
    <g id="Group_676" data-name="Group 676">
      <g id="Group_675" data-name="Group 675" clip-path="url(#clip-path-49)">
        <rect id="Rectangle_408" data-name="Rectangle 408" width="69.659" height="80.166" transform="translate(661.384 132.249) rotate(-84.236)" fill="url(#linear-gradient-41)"/>
      </g>
    </g>
    <g id="Group_678" data-name="Group 678">
      <g id="Group_677" data-name="Group 677" clip-path="url(#clip-path-50)">
        <rect id="Rectangle_409" data-name="Rectangle 409" width="210.972" height="345.432" transform="matrix(0.95, -0.311, 0.311, 0.95, 45.794, 474.135)" fill="url(#linear-gradient-42)"/>
      </g>
    </g>
    <g id="Group_680" data-name="Group 680">
      <g id="Group_679" data-name="Group 679" clip-path="url(#clip-path-6)">
        <path id="Path_389" data-name="Path 389" d="M274.808,223.832a.576.576,0,0,0-.08.4,141.124,141.124,0,0,0,7.135,22.989.535.535,0,0,0,.291.291.426.426,0,0,0,.4,0,.488.488,0,0,0,.291-.661,139.859,139.859,0,0,1-7.082-22.83.506.506,0,0,0-.211-.344.526.526,0,0,0-.74.159M670.009,333.1a.58.58,0,0,0,.079.4.5.5,0,0,0,.344.211q40.476,8.115,51.765,8.429,11.265.318,13.846.555a.508.508,0,0,0,.4-.132.456.456,0,0,0,.185-.343.51.51,0,0,0-.132-.4.465.465,0,0,0-.344-.185q-2.6-.237-13.926-.555-11.249-.319-51.58-8.4a.55.55,0,0,0-.634.423m45.212-98.166a.518.518,0,0,0-.291.264,202.822,202.822,0,0,1-17.783,30.732A292.9,292.9,0,0,1,671.2,297.291a.552.552,0,0,0-.132.37.543.543,0,0,0,.529.529.474.474,0,0,0,.37-.185,293.817,293.817,0,0,0,26.054-31.472,203.7,203.7,0,0,0,17.863-30.889.494.494,0,0,0,.026-.4.509.509,0,0,0-.291-.291.488.488,0,0,0-.4-.026" fill="#33292f"/>
        <path id="Path_390" data-name="Path 390" d="M260.3,71.5V71.47a40.938,40.938,0,0,0-3.145,30.254.5.5,0,0,0,.238.318.506.506,0,0,0,.714-.211.452.452,0,0,0,.053-.4,40.065,40.065,0,0,1,3.065-29.464h.026a17.734,17.734,0,0,1,3.964-5.284,8.24,8.24,0,0,1,5.575-2.273.509.509,0,0,0,.4-.159.511.511,0,0,0,0-.739.482.482,0,0,0-.37-.159,9.179,9.179,0,0,0-6.289,2.536,18.793,18.793,0,0,0-4.228,5.6" fill="#33292f"/>
        <path id="Path_391" data-name="Path 391" d="M719.132,121.966q-1.839-1.571-2.827-2.352-3.9-3.16-13.45-7.663-9.148-4.344-13.133-7.716a.532.532,0,0,0-.4-.132.526.526,0,0,0-.29.925q4.05,3.453,13.37,7.875,9.395,4.43,13.239,7.53.992.775,2.827,2.352a17.328,17.328,0,0,0,3.171,2.088.214.214,0,0,1,.053.026c.069.02.566.152,1.506.4q1.451.405,5.549-.634,4-1,9.2-6.024a.469.469,0,0,0,.159-.37.477.477,0,0,0-.159-.37.485.485,0,0,0-.37-.159.538.538,0,0,0-.37.132q-4.947,4.78-8.72,5.761-3.717.944-5.02.634l-1.427-.37a16.677,16.677,0,0,1-2.881-1.9Zm-11.574-47.96a.537.537,0,0,0,.264.317,55.855,55.855,0,0,1,10.094,6.4,20.3,20.3,0,0,1,6.553,9.143,29.133,29.133,0,0,1,.978,9.856,108.264,108.264,0,0,1-1.664,13.793q-.357,2.043-.873,4.44a.581.581,0,0,0,.08.4.5.5,0,0,0,.343.211.446.446,0,0,0,.4-.079.415.415,0,0,0,.211-.317q.516-2.412.872-4.466A108.672,108.672,0,0,0,726.5,99.77a30.061,30.061,0,0,0-1.03-10.226A21.243,21.243,0,0,0,718.6,79.9,56.478,56.478,0,0,0,708.3,73.372a.488.488,0,0,0-.4-.027.56.56,0,0,0-.318.265.542.542,0,0,0-.026.4" fill="#33292f"/>
      </g>
    </g>
    <g id="Group_682" data-name="Group 682">
      <g id="Group_681" data-name="Group 681" clip-path="url(#clip-path-52)">
        <rect id="Rectangle_411" data-name="Rectangle 411" width="74.701" height="64.484" transform="translate(281.647 346.489) rotate(-18.83)" fill="url(#linear-gradient-43)"/>
      </g>
    </g>
    <g id="Group_684" data-name="Group 684">
      <g id="Group_683" data-name="Group 683" clip-path="url(#clip-path-6)">
        <path id="Path_393" data-name="Path 393" d="M292.3,277.473q-.912.036-1.823.053,1.458,19.412,3.646,47.881.658,9.016,1.771,16.224,6.444.129,13.053.185a110.414,110.414,0,0,1-7.821-23.28q-1.325-5.654-3.832-18.946-2.243-11.811-3.778-17.678-.5-1.981-1.216-4.439" fill="#b62b49"/>
        <path id="Path_394" data-name="Path 394" d="M233.454,577.256a.6.6,0,0,0-.238.318,471.681,471.681,0,0,1-31.207,92.59.615.615,0,0,0-.026.423.5.5,0,0,0,.687.291.436.436,0,0,0,.29-.265,473.072,473.072,0,0,0,31.287-92.8.466.466,0,0,0-.053-.4.588.588,0,0,0-.344-.238.547.547,0,0,0-.4.079M262.388,446.72a.586.586,0,0,0-.237.318q-6.549,29.4-10.438,58.239a.5.5,0,0,0,.106.4.532.532,0,0,0,.343.211.493.493,0,0,0,.4-.105.553.553,0,0,0,.211-.37q3.876-28.793,10.411-58.134a.462.462,0,0,0-.053-.4.587.587,0,0,0-.343-.238.57.57,0,0,0-.4.079m90.874,120.2a.493.493,0,0,0-.133.37,923.135,923.135,0,0,1,.846,132.359.531.531,0,0,0,.132.4.5.5,0,0,0,.344.185.536.536,0,0,0,.4-.132.516.516,0,0,0,.185-.37,923.747,923.747,0,0,0-.846-132.518.485.485,0,0,0-.185-.343.531.531,0,0,0-.4-.132.486.486,0,0,0-.343.185M337.988,373.631a.5.5,0,0,0-.132.37l9.117,127.55a.515.515,0,0,0,.184.37.494.494,0,0,0,.37.132.514.514,0,0,0,.37-.185.527.527,0,0,0,.132-.4l-9.116-127.55a.489.489,0,0,0-.185-.344.531.531,0,0,0-.4-.132.5.5,0,0,0-.344.185m304.17-16.753a.512.512,0,0,0-.291.264,169.289,169.289,0,0,0-12.578,36.175q-3.4,14.568-6.579,37.919a1265.58,1265.58,0,0,0-9.169,241.28.528.528,0,0,0,.158.37.548.548,0,0,0,.4.132.493.493,0,0,0,.369-.185.466.466,0,0,0,.133-.37,1264.564,1264.564,0,0,1,9.169-241.1q3.162-23.288,6.553-37.813a168.3,168.3,0,0,1,12.5-35.937.556.556,0,0,0,.026-.423.505.505,0,0,0-.264-.291.552.552,0,0,0-.423-.026" fill="#fff"/>
      </g>
    </g>
    <g id="Group_686" data-name="Group 686">
      <g id="Group_685" data-name="Group 685" clip-path="url(#clip-path-54)">
        <rect id="Rectangle_413" data-name="Rectangle 413" width="66.193" height="112.896" transform="translate(212.435 349.881) rotate(-17.747)" fill="url(#linear-gradient-44)"/>
      </g>
    </g>
    <g id="Group_688" data-name="Group 688">
      <g id="Group_687" data-name="Group 687" clip-path="url(#clip-path-6)">
        <path id="Path_396" data-name="Path 396" d="M679.469,113.537a.652.652,0,0,0-.344.211,29.1,29.1,0,0,0-2.536,4.36l.026-.026a12.753,12.753,0,0,0-1.268,4.862.5.5,0,0,0,.132.37.532.532,0,0,0,.37.185.447.447,0,0,0,.37-.159.47.47,0,0,0,.185-.37,11.742,11.742,0,0,1,1.162-4.439A28.289,28.289,0,0,1,680,114.356a.438.438,0,0,0,.079-.4.488.488,0,0,0-.212-.344.57.57,0,0,0-.4-.079" fill="#fff"/>
      </g>
    </g>
    <g id="Group_690" data-name="Group 690">
      <g id="Group_689" data-name="Group 689" clip-path="url(#clip-path-56)">
        <rect id="Rectangle_415" data-name="Rectangle 415" width="25.68" height="77.367" transform="translate(773.853 11.674) rotate(-79.592)" fill="url(#linear-gradient-45)"/>
      </g>
    </g>
    <g id="Group_692" data-name="Group 692">
      <g id="Group_691" data-name="Group 691" clip-path="url(#clip-path-6)">
        <path id="Path_398" data-name="Path 398" d="M866.606,64.44a4.248,4.248,0,0,0-1.453-.872q-1.412-.387-10.861.185L831.224,84.866q9.006,3.068,13.582.5Z" fill="#afafaf"/>
      </g>
    </g>
    <g id="Group_694" data-name="Group 694">
      <g id="Group_693" data-name="Group 693" clip-path="url(#clip-path-58)">
        <rect id="Rectangle_417" data-name="Rectangle 417" width="121.593" height="50.623" transform="translate(652.554 464.525) rotate(-79.336)" fill="url(#linear-gradient-46)"/>
      </g>
    </g>
    <g id="Group_696" data-name="Group 696">
      <g id="Group_695" data-name="Group 695" clip-path="url(#clip-path-6)">
        <path id="Path_400" data-name="Path 400" d="M698.286,132.268a15.484,15.484,0,0,1,1.154-3.789c.413-1.146.849-3.4,2.094-4.032,2.869-1.468,5.446,2.321,4.957,4.855-.335,1.734-2.425,3.345-3.839,4.2-1.259.761-2.688.592-4.09.562" fill="#f4ba9a"/>
      </g>
    </g>
  </g>
</svg>
