<svg id="Group_512" data-name="Group 512" xmlns="http://www.w3.org/2000/svg" width="170.029" height="170.029" viewBox="0 0 170.029 170.029">
  <path id="Path_229" data-name="Path 229" d="M131.182,1181c-4.233,2.441-20.646-10.924-25.365-9.655s-12.254,21.041-17.143,21.041-12.424-19.778-17.143-21.041S50.4,1183.44,46.167,1181s-.868-23.343-4.324-26.8-24.351-.092-26.792-4.324,10.918-20.647,9.655-25.365S3.66,1112.259,3.66,1107.37s19.778-12.419,21.047-17.137-12.1-21.132-9.655-25.37,23.336-.862,26.792-4.318.091-24.351,4.324-26.8,20.646,10.918,25.365,9.655,12.254-21.047,17.143-21.047,12.424,19.784,17.143,21.047,21.132-12.1,25.365-9.655.868,23.342,4.324,26.8,24.351.091,26.792,4.318-10.918,20.646-9.655,25.37,21.047,12.254,21.047,17.137-19.778,12.424-21.047,17.142,12.1,21.132,9.655,25.365-23.336.868-26.792,4.324S135.414,1178.552,131.182,1181Z" transform="translate(-3.66 -1022.355)" fill="#fc0"/>
</svg>
