<svg xmlns="http://www.w3.org/2000/svg" width="143.278" height="148.188" viewBox="0 0 143.278 148.188">
  <g id="Group_372" data-name="Group 372" transform="translate(0 -4.689)">
    <g id="Icon_ionic-ios-chatboxes" data-name="Icon ionic-ios-chatboxes" transform="translate(0 4.689)">
      <path id="Path_209" data-name="Path 209" d="M101.153,11.981H24.811A13.374,13.374,0,0,0,11.686,25.554V80.523A13.343,13.343,0,0,0,24.811,94.061H68.494a3.7,3.7,0,0,1,2.618,1.14l21.7,20.7c1.206,1.211,3.2.713,3.2-1.033V96.839c0-2.137,1.309-2.814,3.376-2.814h.344c7.234,0,14.5-6.021,14.5-13.537V25.554A13.3,13.3,0,0,0,101.153,11.981Z" transform="translate(29.034 31.623)" fill="#1347a0"/>
      <path id="Path_210" data-name="Path 210" d="M46.92,38.252h61.114V14.989A11.429,11.429,0,0,0,96.8,3.375h-82.2A11.429,11.429,0,0,0,3.375,14.989V73.841A11.429,11.429,0,0,0,14.606,85.454H35.655V49.865A11.48,11.48,0,0,1,46.92,38.252Z" transform="translate(-3.375 -3.375)" fill="#1347a0"/>
    </g>
  </g>
</svg>
