
<?xml version="1.0" encoding="UTF-8"?><svg id="Layer_2" xmlns="http://www.w3.org/2000/svg" viewBox="0 0 976.24 275.16"><defs><style>.cls-1{fill:#3d55a5;}</style></defs><g id="Layer_1-2"><g><path class="cls-1" d="M49.6,4.72l79.52,214.14c2.76,6.69,7.48,11.02,14.56,11.02,7.87,0,13.78-5.9,13.78-14.96V57.87C157.46,23.23,177.14,0,216.11,0c35.43,0,52.75,18.9,62.98,49.21l64.56,169.66c2.36,6.69,7.87,11.02,14.56,11.02,7.87,0,13.38-5.9,13.38-14.96V4.72h46.84V216.9c0,35.03-19.68,58.26-59.05,58.26-35.43,0-52.35-18.9-62.59-49.21L232.25,56.29c-2.36-6.69-7.87-11.42-14.96-11.42-7.87,0-13.38,5.9-13.38,15.35V216.9c0,35.03-19.68,58.26-59.05,58.26-35.43,0-52.35-18.9-62.59-49.21L0,4.72H49.6Z"/><path class="cls-1" d="M625.9,4.72c59.83,0,85.42,37,85.42,79.52,0,33.07-15.75,68.49-56.29,79.91l61.8,106.28h-51.57l-60.62-102.74h-69.28c-4.33,0-6.69,1.97-6.69,6.69v96.05h-46.45v-105.1c0-29.92,12.6-42.12,41.73-42.12h103.53c26.37,0,37-18.11,37-37s-11.42-35.03-37-35.03h-145.65V4.72h144.07Z"/><path class="cls-1" d="M975.85,4.72V51.17h-133.05c-27.95,0-40.15,12.99-40.15,33.46,0,21.65,13.78,31.49,40.55,31.49h130.69v42.12h-131.87c-26.77,0-40.55,10.63-40.55,32.28s12.99,33.46,40.15,33.46h134.63v46.45h-134.63c-62.98,0-88.57-31.1-88.57-72.43,0-30.31,13.78-50.78,38.18-61.02-24.8-10.23-37.4-30.7-37.4-59.83,0-42.51,26.37-72.43,88.96-72.43h133.05Z"/></g></g></svg>