<svg xmlns="http://www.w3.org/2000/svg" width="130.181" height="205.434" viewBox="0 0 130.181 205.434">
  <g id="Group_500" data-name="Group 500" transform="translate(-13 -2.066)">
    <path id="Path_81" data-name="Path 81" d="M70.361,3.22C35.19,3.22,16.2,37.693,16.2,70.124c-.757,30.181,26.721,42.058,54.161,41.417,27.433.644,54.931-11.24,54.161-41.417,0-32.431-18.989-66.9-54.161-66.9Z" transform="translate(7.729 2.8)" fill="#565468"/>
    <path id="Path_82" data-name="Path 82" d="M117.615,46.294A41.225,41.225,0,0,0,93.978,38.87H55.747A41.537,41.537,0,0,0,14.33,80.287v31.859a3.2,3.2,0,0,0,3.186,3.186H132.209a3.2,3.2,0,0,0,3.186-3.186V80.287a41.458,41.458,0,0,0-17.779-33.993Z" transform="translate(3.228 89.277)" fill="#e5daef"/>
    <path id="Path_83" data-name="Path 83" d="M87.315,39.172c-2.864-.8-40.256-.274-44.158-.411a41.225,41.225,0,0,0-23.637,7.42c6.56,21,21.342,37.82,31.219,47.278a121.808,121.808,0,0,0,9.623,8.379,3.186,3.186,0,0,0,3.823,0,121.806,121.806,0,0,0,9.623-8.379C83.684,84,98.466,67.178,105.029,46.181A41.136,41.136,0,0,0,87.315,39.172Z" transform="translate(15.817 88.906)" fill="#9d7bc9"/>
    <path id="Path_84" data-name="Path 84" d="M51.7,79.64a121.8,121.8,0,0,1-9.623,8.379,3.186,3.186,0,0,1-3.823,0,121.792,121.792,0,0,1-9.623-8.379c1.4-13.127,2.963-27.622,3.7-34.918H48.005c.733,7.2,2.3,21.76,3.7,34.918Z" transform="translate(37.923 103.472)" fill="#fb8926"/>
    <path id="Path_85" data-name="Path 85" d="M48.06,43.2l-7.382,4.371L34,42.7A12.25,12.25,0,1,0,48.06,43.2Z" transform="translate(37.396 98.557)" fill="#fb8926"/>
    <path id="Path_86" data-name="Path 86" d="M72.8,38.312H61.447A98.97,98.97,0,0,0,50.091,48.487,98.967,98.967,0,0,0,38.735,38.309H27.382a2.84,2.84,0,0,0-2.84,2.836A38.618,38.618,0,0,0,30.7,59.754a2.857,2.857,0,0,0,4.368.432A14.7,14.7,0,0,1,49.221,55.2c2.915.634,7.084-3.093,15.9,4.984a2.857,2.857,0,0,0,4.368-.432A38.618,38.618,0,0,0,75.64,41.145a2.84,2.84,0,0,0-2.84-2.836Z" transform="translate(27.999 87.916)" fill="#e5daef"/>
    <path id="Path_87" data-name="Path 87" d="M50.581,31.4H31.466a3.2,3.2,0,0,0-3.186,3.186V56.651a12.915,12.915,0,0,0,25.487,0V34.589A3.2,3.2,0,0,0,50.581,31.4Z" transform="translate(37.066 71.164)" fill="#ffc490"/>
    <path id="Path_88" data-name="Path 88" d="M101.57,34.1A16.426,16.426,0,0,0,77.957,19.231a13.754,13.754,0,0,1-10.973,1.011c-2.871-1.165-3.268-2.991-5.687-3.169-3.672-.271-5,3.785-9.277,4.519-4.378,1.209-9.26-4.611-15.392-4.2a16.6,16.6,0,0,0-7.663,31.277c2.5,41.218,61.1,41.229,63.64.045A16.461,16.461,0,0,0,101.57,34.1Z" transform="translate(17.303 36.372)" fill="#ffc490"/>
    <path id="Path_89" data-name="Path 89" d="M83.112,46.518A14.337,14.337,0,1,1,97.448,32.182,14.337,14.337,0,0,1,83.112,46.518Zm-47.96,0A14.337,14.337,0,1,1,49.488,32.182,14.337,14.337,0,0,1,35.152,46.518Z" transform="translate(18.958 38.276)" fill="#e5daef" opacity="0.6"/>
    <path id="Path_90" data-name="Path 90" d="M16.427,207.5H139.753a3.426,3.426,0,0,0,3.426-3.426V169.817c.206-22.713-16.539-39.838-37.683-44.534h-13.7v-7.65c28.845-3.518,44.534-18.732,44.534-43.736-1.781-95.8-114.714-95.749-116.475,0,0,25.008,15.69,40.218,44.534,43.736v7.65h-13.7C29.541,129.983,12.8,147.1,13,169.817v34.257A3.426,3.426,0,0,0,16.427,207.5Zm38.258-56.333c1.733,2.552,4.769,1.5,6.413-.534A16.988,16.988,0,0,0,65.511,160.8L64.25,172.773a118.828,118.828,0,0,1-23.785-36.546,37.434,37.434,0,0,1,7.2-2.765,50.42,50.42,0,0,0,7.016,17.7ZM74.5,145.3c4.793,1.542,8.157-1.233,13.333.939a10.219,10.219,0,1,1-19.486,0A16.573,16.573,0,0,1,74.5,145.3Zm-2.569,19.9a16.728,16.728,0,0,0,12.315,0l1.463,13.929q-3.682,3.564-7.619,6.851-3.934-3.285-7.619-6.851Zm20,7.571L90.669,160.8a16.988,16.988,0,0,0,4.412-10.164c1.644,2.038,4.683,3.083,6.413.534a50.42,50.42,0,0,0,7.016-17.7,37.434,37.434,0,0,1,7.2,2.765A118.828,118.828,0,0,1,91.93,172.773Zm9.866-40.639a40.046,40.046,0,0,1-4.042,11.791,25.659,25.659,0,0,0-12.535-5.31l4.865-6.481ZM51.524,90.844A20.575,20.575,0,0,0,74.359,73.9h7.468a20.575,20.575,0,0,0,22.85,16.947c-7.126,27.556-46.12,27.334-53.153,0Zm50.547-6.67a13.7,13.7,0,1,1,13.7-13.7A13.7,13.7,0,0,1,102.07,84.174ZM81.824,67.045H74.356a20.383,20.383,0,0,0-2.508-6.906,21.041,21.041,0,0,0,6.242-5.224,21.04,21.04,0,0,0,6.242,5.224A20.383,20.383,0,0,0,81.824,67.045ZM67.813,70.471a13.7,13.7,0,1,1-13.7-13.7A13.7,13.7,0,0,1,67.813,70.471ZM26.7,73.9c2.2-86.893,100.613-86.787,102.772,0,0,20.667-12.322,30.465-27.45,34.74a33.887,33.887,0,0,0,10.027-20.212c25.326-15.758.531-51.776-23.233-33.641A11.966,11.966,0,0,1,81.5,46.111a3.426,3.426,0,0,0-6.81,0,11.966,11.966,0,0,1-7.324,8.674C43.566,36.642,18.811,72.7,44.134,88.429A34.107,34.107,0,0,0,54.2,108.651C39.047,104.379,26.7,94.585,26.7,73.9ZM78.09,118.431q3.528,0,6.851-.185v9.321L78.09,136.7l-6.851-9.136V118.25Q74.562,118.431,78.09,118.431Zm-11.99,13.7,4.861,6.481a25.617,25.617,0,0,0-12.538,5.313,39.78,39.78,0,0,1-4.042-11.795ZM19.853,169.817A37.532,37.532,0,0,1,34.57,139.924C48.218,172,74.562,193.225,78.09,193.8c3.522-.562,29.883-21.818,43.52-53.876a37.532,37.532,0,0,1,14.717,29.893v30.831H19.853Z" transform="translate(0)" fill="#42210b"/>
  </g>
</svg>
