<svg xmlns="http://www.w3.org/2000/svg" width="184.891" height="205.434" viewBox="0 0 184.891 205.434">
  <g id="man-avatar-reading-student-education-book_store" data-name="man-avatar-reading-student-education-book store" transform="translate(-5 -2)">
    <path id="Path_69" data-name="Path 69" d="M119.141,124.021H13V55.543A20.543,20.543,0,0,1,33.543,35h82.174Z" transform="translate(19.391 79.989)" fill="#f7d880"/>
    <path id="Path_70" data-name="Path 70" d="M21,124.021H127.141V55.543A20.543,20.543,0,0,0,106.6,35H24.424Z" transform="translate(38.782 79.989)" fill="#f7d880"/>
    <path id="Path_71" data-name="Path 71" d="M28,27H55.391V57.815a13.7,13.7,0,0,1-13.7,13.7h0A13.7,13.7,0,0,1,28,57.815Z" transform="translate(55.75 60.598)" fill="#ffcbbe"/>
    <path id="Path_72" data-name="Path 72" d="M23,12H84.63V46.239A30.815,30.815,0,0,1,53.815,77.054h0A30.815,30.815,0,0,1,23,46.239Z" transform="translate(43.63 24.239)" fill="#ffddce"/>
    <path id="Path_73" data-name="Path 73" d="M25.848,15H32.7V35.543H25.848A6.848,6.848,0,0,1,19,28.7V21.848A6.848,6.848,0,0,1,25.848,15Z" transform="translate(33.935 31.511)" fill="#ffcbbe"/>
    <path id="Path_74" data-name="Path 74" d="M6.848,0H13.7V20.543H6.848A6.848,6.848,0,0,1,0,13.7V6.848A6.848,6.848,0,0,1,6.848,0Z" transform="translate(141.956 67.054) rotate(180)" fill="#ffcbbe"/>
    <path id="Path_75" data-name="Path 75" d="M98.75,6.424V26.967A6.868,6.868,0,0,1,91.9,33.815H30.272A10.272,10.272,0,0,1,20,23.543V3H74.782a6.738,6.738,0,0,1,5.889,3.424Z" transform="translate(36.359 2.424)" fill="#3e3d42"/>
    <path id="Path_76" data-name="Path 76" d="M10,107.054H85.326V62.543A20.543,20.543,0,0,0,64.782,42H10Z" transform="translate(12.12 96.956)" fill="#6bc19a"/>
    <path id="Path_77" data-name="Path 77" d="M107.326,107.054H32V62.543A20.543,20.543,0,0,1,52.543,42h54.782Z" transform="translate(65.445 96.956)" fill="#6fc991"/>
    <path id="Path_78" data-name="Path 78" d="M12.848,90.087H23.12a13.7,13.7,0,0,0,13.7-13.7h0a13.7,13.7,0,0,0-13.7-13.7H6V83.239A6.848,6.848,0,0,0,12.848,90.087Zm0-41.087H19.7V62.7H6V55.848A6.848,6.848,0,0,1,12.848,49ZM177.2,90.087H166.923a13.7,13.7,0,0,1-13.7-13.7h0a13.7,13.7,0,0,1,13.7-13.7h17.119V83.239A6.848,6.848,0,0,1,177.2,90.087Z" transform="translate(2.424 113.923)" fill="#ffcbbe"/>
    <path id="Path_79" data-name="Path 79" d="M0,0H13.7V13.7H6.848A6.848,6.848,0,0,1,0,6.848Z" transform="translate(186.467 176.619) rotate(180)" fill="#ffcbbe"/>
    <path id="Path_80" data-name="Path 80" d="M179.619,159.5H176.2V138.956a3.424,3.424,0,0,0-3.424-3.424h-6.848a24,24,0,0,0-23.967-23.967H114.565v-11.47a34.318,34.318,0,0,0,17.12-29.617h3.424A10.3,10.3,0,0,0,145.38,60.206V53.359a10.3,10.3,0,0,0-10.272-10.272h-3.424v-4.04a10.306,10.306,0,0,0,6.848-9.655V8.848a3.424,3.424,0,0,0-3.424-3.424H118.742A10.224,10.224,0,0,0,111.141,2H56.359a3.424,3.424,0,0,0-3.424,3.424V25.967A13.7,13.7,0,0,0,63.206,39.184v3.9H59.782A10.3,10.3,0,0,0,49.511,53.359v6.848A10.3,10.3,0,0,0,59.782,70.478h3.424a34.318,34.318,0,0,0,17.12,29.617v11.47H52.935a24,24,0,0,0-23.967,23.967H22.12a3.424,3.424,0,0,0-3.424,3.424V159.5H15.272A10.3,10.3,0,0,0,5,169.771v27.391a10.3,10.3,0,0,0,10.272,10.272H179.619a10.3,10.3,0,0,0,10.272-10.272V169.771A10.3,10.3,0,0,0,179.619,159.5ZM63.206,63.63H59.782a3.424,3.424,0,0,1-3.424-3.424V53.359a3.424,3.424,0,0,1,3.424-3.424h3.424Zm71.9-13.7a3.424,3.424,0,0,1,3.424,3.424v6.848a3.424,3.424,0,0,1-3.424,3.424h-3.424v-13.7ZM59.782,25.967V8.848h51.359a3.424,3.424,0,0,1,3.424,3.424V19.12h6.848V12.272h10.272v17.12a3.424,3.424,0,0,1-3.424,3.424H66.63A6.868,6.868,0,0,1,59.782,25.967ZM70.054,70.478V39.663h54.782V70.478a27.391,27.391,0,0,1-54.782,0Zm37.663,32.664v15.271a10.272,10.272,0,0,1-20.543,0V103.142a34.283,34.283,0,0,0,20.543,0ZM11.848,169.771a3.424,3.424,0,0,1,3.424-3.424H18.7V173.2H11.848Zm13.7,30.815H15.272a3.424,3.424,0,0,1-3.424-3.424v-17.12h13.7a10.272,10.272,0,1,1,0,20.543Zm68.478,0H39.136a16.859,16.859,0,0,0,3.527-10.272A17.12,17.12,0,0,0,25.543,173.2V142.38H76.9a17.12,17.12,0,0,1,17.12,17.12ZM76.9,135.532H35.815a17.12,17.12,0,0,1,17.12-17.12H80.326a17.12,17.12,0,1,0,34.239,0h27.391a17.12,17.12,0,0,1,17.12,17.12H117.989A23.917,23.917,0,0,0,97.448,147.2,23.919,23.919,0,0,0,76.9,135.532Zm78.852,65.054H100.869V159.5a17.12,17.12,0,0,1,17.12-17.12h51.359V173.2a17.12,17.12,0,0,0-17.12,17.12,16.859,16.859,0,0,0,3.527,10.272Zm27.288-3.424a3.424,3.424,0,0,1-3.424,3.424H169.347a10.272,10.272,0,0,1,0-20.543h13.7Zm0-23.967H176.2v-6.848h3.424a3.424,3.424,0,0,1,3.424,3.424Z"/>
    <rect id="Rectangle_260" data-name="Rectangle 260" width="6.965" height="10.131" rx="1" transform="translate(83.515 53.429)"/>
    <rect id="Rectangle_261" data-name="Rectangle 261" width="6.965" height="10.131" rx="1" transform="translate(104.41 53.429)"/>
  </g>
</svg>
